<svg xmlns="http://www.w3.org/2000/svg" viewBox="0 0 441.59 352.66"><defs><style>.cls-1{fill:#4e385e}.cls-3{fill:#ffe68c}.cls-4{opacity:.75}.cls-5{fill:#f0b96c}.cls-6{opacity:.4}.cls-7{fill:#fff}.cls-8{opacity:.25}.cls-9{fill:#fffaee}.cls-10{opacity:.1}.cls-11{fill:#f05257}.cls-16{fill:#2e63a4}.cls-17{fill:#ededed}</style></defs><g id="Lines"><g id="Lines-2" data-name="Lines"><path class="cls-1" d="M191.54 485.55a3.34 3.34 0 1 1 0-6.68h8.91a3.34 3.34 0 0 1 0 6.68h-8.91zM213.59 485.51a3.34 3.34 0 0 1 0-6.68l398-.77a3.34 3.34 0 1 1 0 6.68l-397.95.77zM626.24 484.74a3.34 3.34 0 0 1-.08-6.68h.3a3.34 3.34 0 0 1 .08 6.68h-.3z" transform="translate(-188.2 -132.89)"/></g></g><g id="Corns"><path class="cls-3" d="M232.27 473.74h-.05z" transform="translate(-188.2 -132.89)"/><path class="cls-1" d="M232.27 473.74h-.05z" transform="translate(-188.2 -132.89)"/><path class="cls-3" d="M239 457.2a6.18 6.18 0 0 1 1.71 5.85h-.49a1.28 1.28 0 0 0-1.2 1.37 1.23 1.23 0 0 0 .44.88l.13.1a1.34 1.34 0 0 0 .8.22h.62a6.18 6.18 0 0 1 5.95 5.75 6.17 6.17 0 0 1-10.21 5.07 6.19 6.19 0 0 1-1.6-2.18 5.73 5.73 0 0 1-.43-1.48v-.32a2 2 0 0 0 0-.25 1.27 1.27 0 0 0-.44-.89 1.52 1.52 0 0 0-.41-.24 1.29 1.29 0 0 0-1.71 1.3 8.69 8.69 0 0 0 .2 1.37l-.05.05a5.47 5.47 0 0 1-.57.51 6.17 6.17 0 0 1-7.64-9.68 6.27 6.27 0 0 1 2.15-1.1 8.75 8.75 0 0 0 2.46 4.4 1.29 1.29 0 0 0 1.82 0 1.33 1.33 0 0 0 .36-.92 1.31 1.31 0 0 0-.4-.9 6.08 6.08 0 0 1-1.63-2.73 5.2 5.2 0 0 1-.22-1.29 5.57 5.57 0 0 1 0-1.29 6.17 6.17 0 0 1 10.36-3.6zM232.27 473.74h-.05z" transform="translate(-188.2 -132.89)"/><g class="cls-4"><path class="cls-5" d="M225.75 462.4s-4.64 5.45.56 9.64a5.06 5.06 0 0 0 7.34-.48s4.38 7 9.72 1.74c4.43-4.35-2.61-9.11-2.61-9.11l6.31 3 1.59 6.15a54.69 54.69 0 0 1-3.54 4.26c-.45.24-5.91 2-5.91 2l-3.77-2.6-1.92-2.46-2.91 2.16-5.05.41s-3.56-3.33-3.81-3.78-1.3-4.56-1.3-4.56l1.48-3.73z" transform="translate(-188.2 -132.89)"/></g><path class="cls-1" d="M228.41 455.57a8.64 8.64 0 0 0-2.42 5.35 8.56 8.56 0 0 0-3.58 1.69 8.73 8.73 0 1 0 10.83 13.7 8.74 8.74 0 0 0 15.18-8.67 8.8 8.8 0 0 0-1.94-2.41 8.7 8.7 0 0 0-3.28-1.81 8.77 8.77 0 0 0-.89-5.93 8.42 8.42 0 0 0-1.6-2.1 8.73 8.73 0 0 0-12.3.18zm16.43 11.56a6.19 6.19 0 0 1 2.1 4.23 6.17 6.17 0 0 1-10.21 5.07 6.19 6.19 0 0 1-1.6-2.18 5.73 5.73 0 0 1-.43-1.48v-.32a2 2 0 0 0 0-.25 1.27 1.27 0 0 0-.44-.89 1.52 1.52 0 0 0-.41-.24 1.29 1.29 0 0 0-1.71 1.3 8.69 8.69 0 0 0 .2 1.37h-.05a5.47 5.47 0 0 1-.57.51 6.17 6.17 0 0 1-7.64-9.68 6.27 6.27 0 0 1 2.15-1.1 8.75 8.75 0 0 0 2.46 4.4 1.29 1.29 0 0 0 1.82 0 1.33 1.33 0 0 0 .36-.92 1.31 1.31 0 0 0-.4-.9 6.08 6.08 0 0 1-1.63-2.73 5.2 5.2 0 0 1-.22-1.29 5.57 5.57 0 0 1 0-1.29 6.16 6.16 0 1 1 12.1 2.29h-.49a1.28 1.28 0 0 0-1.2 1.37 1.23 1.23 0 0 0 .44.88l.13.1a1.34 1.34 0 0 0 .8.22h.62a6.13 6.13 0 0 1 3.85 1.52z" transform="translate(-188.2 -132.89)"/><g class="cls-6"><ellipse class="cls-7" cx="234.36" cy="461.13" rx="1.85" ry="2.89" transform="rotate(-58.52 21.634 562.622)"/></g><path class="cls-3" d="M251.18 458v-.05a.28.28 0 0 0 0 .05z" transform="translate(-188.2 -132.89)"/><path class="cls-1" d="M251.18 458v-.05a.28.28 0 0 0 0 .05z" transform="translate(-188.2 -132.89)"/><path class="cls-3" d="M257.32 479.09a7.6 7.6 0 0 1-6.11-4.34l.46-.4a1.57 1.57 0 0 0 .11-2.23 1.5 1.5 0 0 0-1.09-.51h-.2a1.57 1.57 0 0 0-.94.41c-.19.17-.39.33-.59.49a7.6 7.6 0 1 1-4.14-13.71 7.53 7.53 0 0 1 4.75 2 3.83 3.83 0 0 1 .29.28l.21.23a1.63 1.63 0 0 0 1.1.52 2 2 0 0 0 .59-.08 1.55 1.55 0 0 0 .55-.33 1.58 1.58 0 0 0 .11-2.24 11.38 11.38 0 0 0-1.24-1.17.28.28 0 0 1 0-.09 5.71 5.71 0 0 1 .16-.92 7.61 7.61 0 0 1 9.15-5.64 7.62 7.62 0 0 1 4.71 3.42 7.56 7.56 0 0 1-.33 8.44 10.71 10.71 0 0 0-5.73-2.37 1.59 1.59 0 0 0-1.73 1.42 1.64 1.64 0 0 0 .35 1.16 1.62 1.62 0 0 0 1.07.57 7.46 7.46 0 0 1 3.66 1.39 6.92 6.92 0 0 1 1.21 1.08 6.59 6.59 0 0 1 .94 1.28 7.54 7.54 0 0 1 1 4.56 7.62 7.62 0 0 1-8.32 6.78z" transform="translate(-188.2 -132.89)"/><path class="cls-3" d="M251.18 458v-.05a.28.28 0 0 0 0 .05z" transform="translate(-188.2 -132.89)"/><g class="cls-4"><path class="cls-5" d="M266.14 464s.33-8.81-7.9-8.89a6.24 6.24 0 0 0-6.73 6.07s-9.56-3.4-10.72 5.74c-1 7.59 9.48 6.81 9.48 6.81l-8.39 1.92-6.24-4.74a65.23 65.23 0 0 1 .16-6.81c.25-.59 4.15-6.49 4.15-6.49l5.66-.33 3.74.91 1.16-4.32 4.57-4.25s6 .5 6.57.75 4.74 3.41 4.74 3.41l1.41 4.73z" transform="translate(-188.2 -132.89)"/></g><path class="cls-1" d="M268.79 472.6a10.75 10.75 0 0 0-1.74-7 10.79 10.79 0 0 0 .85-12.5 10.76 10.76 0 0 0-19.63 3.16.25.25 0 0 1 0 .07 10.83 10.83 0 0 0-3.27-.68 10.77 10.77 0 0 0-8.51 18 10.86 10.86 0 0 0 3.73 2.67 11.15 11.15 0 0 0 3.72.85 10.6 10.6 0 0 0 4.55-.77 10.78 10.78 0 0 0 5.38 5.06 11.06 11.06 0 0 0 3.16.82 10.78 10.78 0 0 0 11.76-9.68zm-24.71 1.4a7.6 7.6 0 1 1 .74-15.18 7.53 7.53 0 0 1 4.75 2 3.83 3.83 0 0 1 .29.28l.21.23a1.63 1.63 0 0 0 1.1.52 2 2 0 0 0 .59-.08 1.55 1.55 0 0 0 .55-.33 1.58 1.58 0 0 0 .11-2.24 11.38 11.38 0 0 0-1.24-1.17v-.05a5.71 5.71 0 0 1 .16-.92 7.61 7.61 0 0 1 9.15-5.64 7.62 7.62 0 0 1 4.71 3.42 7.56 7.56 0 0 1-.33 8.44 10.71 10.71 0 0 0-5.73-2.37 1.59 1.59 0 0 0-1.73 1.42 1.64 1.64 0 0 0 .35 1.16 1.62 1.62 0 0 0 1.07.57 7.46 7.46 0 0 1 3.66 1.39 6.92 6.92 0 0 1 1.21 1.08 6.59 6.59 0 0 1 .94 1.28 7.54 7.54 0 0 1 1 4.56 7.59 7.59 0 0 1-14.43 2.47l.46-.4a1.57 1.57 0 0 0 .11-2.23 1.5 1.5 0 0 0-1.09-.51h-.2a1.57 1.57 0 0 0-.94.41c-.19.17-.39.33-.59.49a7.62 7.62 0 0 1-4.88 1.47z" transform="translate(-188.2 -132.89)"/><g class="cls-6"><ellipse class="cls-7" cx="258.79" cy="471.77" rx="3.56" ry="2.28" transform="rotate(-6.83 -948.814 1982.164)"/></g></g><g id="Popcorns"><g id="Popcorns-2" data-name="Popcorns"><path class="cls-3" d="M273.6 207.83v-.08a.24.24 0 0 0 0 .08z" transform="translate(-188.2 -132.89)"/><path class="cls-1" d="M273.6 207.83v-.08a.24.24 0 0 0 0 .08z" transform="translate(-188.2 -132.89)"/><path class="cls-3" d="M287.56 224.82a7.57 7.57 0 0 1-7.33-1.59c.09-.17.19-.36.27-.54a1.57 1.57 0 0 0-.78-2.1 1.5 1.5 0 0 0-1.21 0 .71.71 0 0 0-.18.08 1.53 1.53 0 0 0-.7.74c-.11.23-.23.46-.36.68a7.28 7.28 0 0 1-1 1.37 7.6 7.6 0 1 1-8.18-12.34 7.62 7.62 0 0 1 3.3-.45 7.11 7.11 0 0 1 1.86.4l.37.14.29.12a1.55 1.55 0 0 0 1.21.05 1.76 1.76 0 0 0 .51-.3 1.66 1.66 0 0 0 .38-.52 1.59 1.59 0 0 0-.78-2.1 10.74 10.74 0 0 0-1.61-.59.24.24 0 0 1 0-.09 6.71 6.71 0 0 1-.22-.91 7.6 7.6 0 0 1 15-2.58 7.65 7.65 0 0 1-.08 3 10.69 10.69 0 0 0-6.21.07 1.58 1.58 0 0 0-1 2 1.56 1.56 0 0 0 2 1 7.49 7.49 0 0 1 3.92-.16 6.91 6.91 0 0 1 1.53.52 6.72 6.72 0 0 1 1.37.8 7.59 7.59 0 0 1-2.26 13.34z" transform="translate(-188.2 -132.89)"/><path class="cls-3" d="M273.6 207.83v-.08a.24.24 0 0 0 0 .08z" transform="translate(-188.2 -132.89)"/><g class="cls-4"><path class="cls-5" d="M289.71 207.44s-3.16-8.23-10.76-5.06a6.23 6.23 0 0 0-3.8 8.22s-10.13.64-7.59 9.5c2.1 7.35 11.39 2.53 11.39 2.53l-7 5.07-7.6-1.9a66 66 0 0 1-2.53-6.33c0-.64 1.26-7.6 1.26-7.6l5.07-2.53 3.8-.63-.64-4.44 2.54-5.69s5.69-1.9 6.33-1.9 5.69 1.26 5.69 1.26l3.17 3.8z" transform="translate(-188.2 -132.89)"/></g><path class="cls-1" d="M295.55 214.34a10.73 10.73 0 0 0-4.37-5.77 10.76 10.76 0 1 0-20.93-1.2.22.22 0 0 0 0 .08 10.76 10.76 0 1 0 8.09 18.35 10.76 10.76 0 0 0 17.2-11.46zm-22.18 11a7.6 7.6 0 1 1-2-14.69 7.11 7.11 0 0 1 1.86.4l.37.14.29.12a1.55 1.55 0 0 0 1.21.05 1.76 1.76 0 0 0 .51-.3 1.66 1.66 0 0 0 .38-.52 1.59 1.59 0 0 0-.78-2.1 10.74 10.74 0 0 0-1.61-.59v-.08a6.71 6.71 0 0 1-.22-.91 7.6 7.6 0 0 1 15-2.58 7.65 7.65 0 0 1-.08 3 10.69 10.69 0 0 0-6.21.07 1.58 1.58 0 0 0-1 2 1.56 1.56 0 0 0 2 1 7.49 7.49 0 0 1 3.92-.16 6.91 6.91 0 0 1 1.53.52 6.72 6.72 0 0 1 1.37.8 7.59 7.59 0 1 1-9.59 11.75c.09-.17.19-.36.27-.54a1.57 1.57 0 0 0-.78-2.1 1.5 1.5 0 0 0-1.21 0 .71.71 0 0 0-.18.08 1.53 1.53 0 0 0-.7.74c-.11.23-.23.46-.36.68a7.28 7.28 0 0 1-1 1.37 7.52 7.52 0 0 1-2.99 1.83z" transform="translate(-188.2 -132.89)"/><g class="cls-6"><ellipse class="cls-7" cx="286.03" cy="217.51" rx="3.56" ry="2.28" transform="rotate(-30 -56.041 502.264)"/></g><path class="cls-3" d="M319.12 160.48v-.05a.34.34 0 0 0 0 .05z" transform="translate(-188.2 -132.89)"/><path class="cls-1" d="M319.12 160.48v-.05a.34.34 0 0 0 0 .05z" transform="translate(-188.2 -132.89)"/><path class="cls-3" d="M338.52 166.65a7.05 7.05 0 0 1-6.49 2.46c0-.19 0-.38-.07-.56a1.45 1.45 0 0 0-1.66-1.24 1.42 1.42 0 0 0-1 .58.56.56 0 0 0-.1.15 1.53 1.53 0 0 0-.18.93 5.51 5.51 0 0 1 .07.71 6.84 6.84 0 0 1-.1 1.57 7.09 7.09 0 0 1-1.28 2.94 7 7 0 1 1-11.28-8.4 6.9 6.9 0 0 1 2.33-2 6.63 6.63 0 0 1 1.64-.63l.36-.08h.29a1.46 1.46 0 0 0 1-.58 1.49 1.49 0 0 0 .24-.49 1.34 1.34 0 0 0 0-.6 1.47 1.47 0 0 0-1.66-1.23 10 10 0 0 0-1.55.35.34.34 0 0 1-.06-.06 5.91 5.91 0 0 1-.63-.6 7 7 0 0 1 10.34-9.54 6.83 6.83 0 0 1 1.43 2.36 9.9 9.9 0 0 0-4.78 3.17 1.47 1.47 0 0 0 .2 2.07 1.46 1.46 0 0 0 2.06-.2 6.93 6.93 0 0 1 3-2.1 6.16 6.16 0 0 1 1.45-.36 6.56 6.56 0 0 1 1.47-.07 7 7 0 0 1 5 11.5z" transform="translate(-188.2 -132.89)"/><path class="cls-3" d="M319.12 160.48v-.05a.34.34 0 0 0 0 .05z" transform="translate(-188.2 -132.89)"/><g class="cls-4"><path class="cls-5" d="M331.44 152.06s-6.6-4.79-10.91 1.49a5.77 5.77 0 0 0 1.19 8.3s-7.54 5.59-1.12 11.2c5.34 4.66 10.13-3.77 10.13-3.77l-2.86 7.44-6.87 2.35a61.32 61.32 0 0 1-5.15-3.64c-.32-.49-2.84-6.54-2.84-6.54l2.66-4.51 2.63-2.41-2.72-3.12-.9-5.7s3.46-4.35 4-4.66 5.06-1.89 5.06-1.89l4.37 1.36z" transform="translate(-188.2 -132.89)"/></g><path class="cls-1" d="M339.45 154.49a9.89 9.89 0 0 0-6.3-2.28 9.95 9.95 0 0 0-9.15-7.11 10 10 0 0 0-7.71 16.71l.05.05a10.1 10.1 0 0 0-2.21 2.17 10 10 0 0 0 13.4 14.32 9.81 9.81 0 0 0 2.57-2.41 10 10 0 0 0 1.77-3.89 10 10 0 0 0 6.66-1.53 10.2 10.2 0 0 0 2.26-2 10 10 0 0 0-1.34-14.03zm-11.7 19.7a7 7 0 1 1-11.28-8.4 6.9 6.9 0 0 1 2.33-2 6.63 6.63 0 0 1 1.64-.63l.36-.08h.29a1.46 1.46 0 0 0 1-.58 1.49 1.49 0 0 0 .24-.49 1.34 1.34 0 0 0 0-.6 1.47 1.47 0 0 0-1.66-1.23 10 10 0 0 0-1.55.35v-.05a5.91 5.91 0 0 1-.63-.6 7 7 0 0 1 10.34-9.54 6.83 6.83 0 0 1 1.43 2.36 9.9 9.9 0 0 0-4.78 3.17 1.47 1.47 0 0 0 .2 2.07 1.46 1.46 0 0 0 2.06-.2 6.93 6.93 0 0 1 3-2.1 6.16 6.16 0 0 1 1.45-.36 6.56 6.56 0 0 1 1.47-.07 7 7 0 1 1-1.53 14c0-.19 0-.38-.07-.56a1.45 1.45 0 0 0-1.66-1.24 1.42 1.42 0 0 0-1 .58.56.56 0 0 0-.1.15 1.53 1.53 0 0 0-.18.93 5.51 5.51 0 0 1 .07.71 6.84 6.84 0 0 1-.1 1.57 7.09 7.09 0 0 1-1.34 2.84z" transform="translate(-188.2 -132.89)"/><g class="cls-6"><ellipse class="cls-7" cx="333.65" cy="161.74" rx="3.3" ry="2.11" transform="rotate(-62.95 131 249.015)"/></g><path class="cls-3" d="M353.24 149.22h.05z" transform="translate(-188.2 -132.89)"/><path class="cls-1" d="M353.24 149.22h.05z" transform="translate(-188.2 -132.89)"/><path class="cls-3" d="M336.21 160.36a7 7 0 0 1 2.19-6.59l.48.31a1.47 1.47 0 0 0 2-.51 1.41 1.41 0 0 0 .15-1.11.61.61 0 0 0-.05-.18 1.51 1.51 0 0 0-.61-.72c-.2-.12-.4-.25-.59-.39a7 7 0 1 1 11-7.36 6.93 6.93 0 0 1 .08 3.07 6.55 6.55 0 0 1-.55 1.67l-.17.33-.14.25a1.48 1.48 0 0 0-.17 1.12 1.57 1.57 0 0 0 .23.49 1.31 1.31 0 0 0 .44.4 1.46 1.46 0 0 0 2-.5 10.38 10.38 0 0 0 .7-1.42h.09a6.12 6.12 0 0 1 .86-.1 7 7 0 0 1 .87 14 6.85 6.85 0 0 1-2.74-.38 9.84 9.84 0 0 0 .56-5.71 1.47 1.47 0 0 0-1.72-1.15 1.44 1.44 0 0 0-.94.62 1.49 1.49 0 0 0-.21 1.1 7 7 0 0 1-.25 3.62 7.19 7.19 0 0 1-1.51 2.54 7 7 0 0 1-3.77 2.11 7.05 7.05 0 0 1-8.23-5.51zM353.24 149.22h.05z" transform="translate(-188.2 -132.89)"/><g class="cls-4"><path class="cls-5" d="M352 164.08s7.9-2.08 5.75-9.39a5.78 5.78 0 0 0-7.2-4.32s.44-9.39-8-8c-7 1.2-3.48 10.23-3.48 10.23l-4-6.91 2.51-6.8a61.87 61.87 0 0 1 6.08-1.7c.59.07 6.87 1.93 6.87 1.93l1.82 4.92.2 3.55 4.14-.13 5 2.9s1.17 5.43 1.11 6-1.74 5.11-1.74 5.11l-3.81 2.53z" transform="translate(-188.2 -132.89)"/></g><path class="cls-1" d="M345.05 168.76a9.92 9.92 0 0 0 5.74-3.44 10 10 0 1 0 3.21-19.14h-.07a10.06 10.06 0 0 0-.28-3.08 10 10 0 0 0-19.57 1.34 10 10 0 0 0 .25 3.52 9.81 9.81 0 0 0 1.9 3.82 10 10 0 0 0-3 6.13 9.62 9.62 0 0 0 .13 3 10 10 0 0 0 11.69 7.85zm-7.88-21.51a7 7 0 0 1 13.64-3.44 6.93 6.93 0 0 1 .08 3.07 6.55 6.55 0 0 1-.55 1.67l-.17.33-.14.25a1.48 1.48 0 0 0-.17 1.12 1.57 1.57 0 0 0 .23.49 1.31 1.31 0 0 0 .44.4 1.46 1.46 0 0 0 2-.5 10.38 10.38 0 0 0 .7-1.42h.05a6.12 6.12 0 0 1 .86-.1 7 7 0 0 1 .87 14 6.85 6.85 0 0 1-2.74-.38 9.84 9.84 0 0 0 .56-5.71 1.47 1.47 0 0 0-1.72-1.15 1.44 1.44 0 0 0-.94.62 1.49 1.49 0 0 0-.21 1.1 7 7 0 0 1-.25 3.62 7.19 7.19 0 0 1-1.51 2.54 7 7 0 0 1-3.77 2.11 7 7 0 0 1-6.08-12.12l.48.31a1.47 1.47 0 0 0 2-.51 1.41 1.41 0 0 0 .15-1.11.61.61 0 0 0-.05-.18 1.51 1.51 0 0 0-.61-.72c-.2-.12-.4-.25-.59-.39a6.95 6.95 0 0 1-2.62-3.92z" transform="translate(-188.2 -132.89)"/><g class="cls-6"><ellipse class="cls-7" cx="343.09" cy="159.68" rx="2.11" ry="3.3" transform="rotate(-23.77 -66.662 540.37)"/></g><path class="cls-3" d="M328.21 213.54z" transform="translate(-188.2 -132.89)"/><path class="cls-1" d="M328.21 213.54z" transform="translate(-188.2 -132.89)"/><path class="cls-3" d="M307.93 211.85a7 7 0 0 1 5.78-3.84c.06.17.12.36.19.53a1.47 1.47 0 0 0 1.9.84 1.43 1.43 0 0 0 .8-.78 1.22 1.22 0 0 0 .07-.17 1.48 1.48 0 0 0 0-1c-.08-.22-.16-.45-.22-.67a6.51 6.51 0 0 1-.25-1.57 7 7 0 1 1 13.46 2.54 6.91 6.91 0 0 1-1.82 2.47 6.39 6.39 0 0 1-1.47 1l-.33.16-.27.11a1.41 1.41 0 0 0-.81.78 1.33 1.33 0 0 0-.13.53 1.56 1.56 0 0 0 .1.59 1.46 1.46 0 0 0 1.89.83 9 9 0 0 0 1.43-.69h.08a8.12 8.12 0 0 1 .74.45 7 7 0 0 1-7.95 11.61 7.23 7.23 0 0 1-1.92-2 9.93 9.93 0 0 0 3.95-4.16 1.46 1.46 0 0 0-.65-2 1.51 1.51 0 0 0-1.12-.09 1.48 1.48 0 0 0-.84.74 6.91 6.91 0 0 1-2.43 2.7 5.57 5.57 0 0 1-1.33.68 5.75 5.75 0 0 1-1.42.39 7 7 0 0 1-4.27-.65 7.05 7.05 0 0 1-3.16-9.33zM328.21 213.54z" transform="translate(-188.2 -132.89)"/><g class="cls-4"><path class="cls-5" d="M318.08 224.49s7.5 3.21 10.3-3.88a5.78 5.78 0 0 0-3-7.83s6.12-7.13-1.4-11.16c-6.24-3.35-9 5.93-9 5.93l1.13-7.89 6.16-3.82a60.31 60.31 0 0 1 5.84 2.4c.42.41 4.22 5.74 4.22 5.74l-1.59 5-2 2.93 3.35 2.44 2.15 5.35s-2.41 5-2.82 5.43-4.52 3-4.52 3l-4.56-.35z" transform="translate(-188.2 -132.89)"/></g><path class="cls-1" d="M309.73 223.91a9.87 9.87 0 0 0 6.65.82 10 10 0 1 0 14.3-13.12h-.05a10.05 10.05 0 0 0 1.67-2.6 10 10 0 0 0-12.71-13.32 9.85 9.85 0 0 0-5.51 5.26 9.93 9.93 0 0 0-.86 4.19 10 10 0 0 0-6.15 3 9.83 9.83 0 0 0-1.75 2.45 10 10 0 0 0 4.41 13.32zm7-21.81a7 7 0 1 1 12.87 5.68 6.91 6.91 0 0 1-1.82 2.47 6.39 6.39 0 0 1-1.47 1l-.33.16-.27.11a1.41 1.41 0 0 0-.81.78 1.33 1.33 0 0 0-.13.53 1.56 1.56 0 0 0 .1.59 1.46 1.46 0 0 0 1.89.83 9 9 0 0 0 1.43-.69 8.12 8.12 0 0 1 .74.45 7 7 0 0 1-7.95 11.61 7.23 7.23 0 0 1-1.92-2 9.93 9.93 0 0 0 3.95-4.16 1.46 1.46 0 0 0-.65-2 1.51 1.51 0 0 0-1.12-.09 1.48 1.48 0 0 0-.84.74 6.91 6.91 0 0 1-2.43 2.7 5.57 5.57 0 0 1-1.33.68 5.75 5.75 0 0 1-1.42.39 7 7 0 0 1-4.27-.65 7 7 0 0 1 2.76-13.23c.06.17.12.36.19.53a1.47 1.47 0 0 0 1.9.84 1.43 1.43 0 0 0 .8-.78 1.22 1.22 0 0 0 .07-.17 1.48 1.48 0 0 0 0-1c-.08-.22-.16-.45-.22-.67a6.51 6.51 0 0 1-.25-1.57 7 7 0 0 1 .55-3.08z" transform="translate(-188.2 -132.89)"/><g class="cls-6"><ellipse class="cls-7" cx="313.77" cy="215.55" rx="3.3" ry="2.11" transform="rotate(-75.82 134.33 269.939)"/></g><path class="cls-3" d="M348.82 178.17z" transform="translate(-188.2 -132.89)"/><path class="cls-1" d="M348.82 178.17z" transform="translate(-188.2 -132.89)"/><path class="cls-3" d="M328.63 175.6a7 7 0 0 1 5.94-3.59 5.6 5.6 0 0 0 .17.54 1.46 1.46 0 0 0 1.86.92 1.42 1.42 0 0 0 .83-.74.89.89 0 0 0 .08-.17 1.44 1.44 0 0 0 0-.94c-.07-.23-.14-.46-.19-.69a6 6 0 0 1-.18-1.57 6.87 6.87 0 0 1 .73-3.12 7 7 0 1 1 10.68 8.62 6.63 6.63 0 0 1-1.51.92l-.34.14-.27.1a1.45 1.45 0 0 0-.85.74 1.53 1.53 0 0 0-.07 1.12 1.46 1.46 0 0 0 1.85.91 10 10 0 0 0 1.46-.62h.07a7 7 0 0 1-2.5 13.07 6.94 6.94 0 0 1-5.21-1.34 6.82 6.82 0 0 1-1.84-2.06 9.88 9.88 0 0 0 4.13-4 1.47 1.47 0 0 0-1.68-2.13 1.45 1.45 0 0 0-.88.7 6.85 6.85 0 0 1-2.53 2.59 6.3 6.3 0 0 1-1.37.63 6.19 6.19 0 0 1-1.43.32 7 7 0 0 1-4.24-.84 7 7 0 0 1-2.71-9.51zM348.82 178.17z" transform="translate(-188.2 -132.89)"/><g class="cls-4"><path class="cls-5" d="M338.23 188.67s7.36 3.53 10.46-3.43a5.77 5.77 0 0 0-2.67-8s6.41-6.86-.92-11.22c-6.09-3.62-9.28 5.53-9.28 5.53l1.47-7.83 6.32-3.55a62 62 0 0 1 5.72 2.65c.41.43 4 5.92 4 5.92l-1.8 4.92-2.16 2.84 3.24 2.59 1.92 5.44s-2.63 4.9-3.05 5.3-4.64 2.77-4.64 2.77l-4.55-.55z" transform="translate(-188.2 -132.89)"/></g><path class="cls-1" d="M329.91 187.73a9.92 9.92 0 0 0 6.61 1.11 10 10 0 0 0 10.29 5.34 10 10 0 0 0 4.56-17.83h-.05a10 10 0 1 0-17.11-7.21 10.05 10.05 0 0 0-6.28 2.7 9.87 9.87 0 0 0-1.85 2.38 10 10 0 0 0 3.83 13.51zm8-21.49a7 7 0 1 1 10.68 8.62 6.63 6.63 0 0 1-1.51.92l-.34.14-.27.1a1.45 1.45 0 0 0-.85.74 1.53 1.53 0 0 0-.07 1.12 1.46 1.46 0 0 0 1.85.91 10 10 0 0 0 1.46-.62 7 7 0 0 1-2.5 13.07 6.94 6.94 0 0 1-5.21-1.34 6.82 6.82 0 0 1-1.84-2.06 9.88 9.88 0 0 0 4.13-4 1.47 1.47 0 0 0-1.68-2.13 1.45 1.45 0 0 0-.88.7 6.85 6.85 0 0 1-2.53 2.59 6.3 6.3 0 0 1-1.37.63 6.19 6.19 0 0 1-1.43.32 7 7 0 0 1-4.24-.84 7 7 0 0 1 3.26-13.11 5.6 5.6 0 0 0 .17.54 1.46 1.46 0 0 0 1.86.92 1.42 1.42 0 0 0 .83-.74.89.89 0 0 0 .08-.17 1.44 1.44 0 0 0 0-.94c-.07-.23-.14-.46-.19-.69a6 6 0 0 1-.18-1.57 6.87 6.87 0 0 1 .73-3.11z" transform="translate(-188.2 -132.89)"/><g class="cls-6"><ellipse class="cls-7" cx="334.31" cy="179.55" rx="3.3" ry="2.11" transform="rotate(-73.35 150.964 239.47)"/></g><path class="cls-3" d="M327.62 201.56v.06a.24.24 0 0 1 0-.06z" transform="translate(-188.2 -132.89)"/><path class="cls-1" d="M327.62 201.56v.06a.24.24 0 0 1 0-.06z" transform="translate(-188.2 -132.89)"/><path class="cls-3" d="M315.91 184.92a7 7 0 0 1 6.65 2c-.1.16-.2.32-.29.49a1.46 1.46 0 0 0 .58 2 1.4 1.4 0 0 0 1.11.12l.18-.06a1.57 1.57 0 0 0 .7-.63 6.18 6.18 0 0 1 .37-.61 6.58 6.58 0 0 1 1-1.19 7 7 0 0 1 8.14-1 7 7 0 0 1-1.45 12.91 7.1 7.1 0 0 1-3.07.19 6.82 6.82 0 0 1-1.69-.5l-.33-.15-.25-.14a1.43 1.43 0 0 0-1.12-.12 1.49 1.49 0 0 0-.49.24 1.41 1.41 0 0 0-.39.45 1.46 1.46 0 0 0 .58 2 9.83 9.83 0 0 0 1.44.66.24.24 0 0 0 0 .08 6.15 6.15 0 0 1 .13.86 7 7 0 0 1-14 1.35 7.06 7.06 0 0 1 .28-2.75 9.84 9.84 0 0 0 5.73.36 1.46 1.46 0 1 0-.67-2.85 7 7 0 0 1-3.63-.12 7.62 7.62 0 0 1-2.58-1.42 7 7 0 0 1 3-12.15z" transform="translate(-188.2 -132.89)"/><path class="cls-3" d="M327.62 201.56v.06a.24.24 0 0 1 0-.06z" transform="translate(-188.2 -132.89)"/><g class="cls-4"><path class="cls-5" d="M312.72 200.81s2.35 7.81 9.58 5.41a5.77 5.77 0 0 0 4.08-7.33s9.39.11 7.67-8.24c-1.44-6.94-10.35-3.12-10.35-3.12l6.78-4.2 6.88 2.28a58.76 58.76 0 0 1 1.9 6c0 .58-1.69 6.92-1.69 6.92l-4.85 2-3.55.32.28 4.14-2.73 5.08s-5.39 1.36-6 1.32-5.17-1.57-5.17-1.57l-2.66-3.72z" transform="translate(-188.2 -132.89)"/></g><path class="cls-1" d="M307.81 194a9.9 9.9 0 0 0 3.63 5.63 10 10 0 1 0 19.24 2.55v-.07a9.76 9.76 0 0 0 3.07-.38 10 10 0 0 0-2-19.52 10.15 10.15 0 0 0-3.5.37 10 10 0 0 0-3.76 2 10.05 10.05 0 0 0-6.23-2.81A9.95 9.95 0 0 0 307.81 194zm21.23-8.6a7 7 0 0 1 8.71 4.8 7 7 0 0 1-4.81 8.71 7.1 7.1 0 0 1-3.07.19 6.82 6.82 0 0 1-1.69-.5l-.33-.15-.25-.14a1.43 1.43 0 0 0-1.12-.12 1.49 1.49 0 0 0-.49.24 1.41 1.41 0 0 0-.39.45 1.46 1.46 0 0 0 .58 2 9.83 9.83 0 0 0 1.44.66v.06a6.15 6.15 0 0 1 .13.86 7 7 0 0 1-14 1.35 7.06 7.06 0 0 1 .28-2.75 9.84 9.84 0 0 0 5.73.36 1.46 1.46 0 1 0-.67-2.85 7 7 0 0 1-3.63-.12 7.62 7.62 0 0 1-2.58-1.42 7 7 0 1 1 9.66-10.19c-.1.16-.2.32-.29.49a1.46 1.46 0 0 0 .58 2 1.4 1.4 0 0 0 1.11.12l.18-.06a1.57 1.57 0 0 0 .7-.63 6.18 6.18 0 0 1 .37-.61 6.58 6.58 0 0 1 1-1.19 6.88 6.88 0 0 1 2.81-1.53z" transform="translate(-188.2 -132.89)"/><g class="cls-6"><ellipse class="cls-7" cx="316.82" cy="191.77" rx="3.3" ry="2.11" transform="rotate(-25.72 -68.267 537.536)"/></g><path class="cls-3" d="M308.91 217.59z" transform="translate(-188.2 -132.89)"/><path class="cls-1" d="M308.91 217.59z" transform="translate(-188.2 -132.89)"/><path class="cls-3" d="M297.2 201a7 7 0 0 1 6.66 2c-.1.15-.2.32-.29.48a1.45 1.45 0 0 0 .57 2 1.43 1.43 0 0 0 1.12.12.49.49 0 0 0 .17-.06 1.43 1.43 0 0 0 .7-.63c.12-.21.24-.41.37-.61a6.63 6.63 0 0 1 1.05-1.19 6.86 6.86 0 0 1 2.79-1.56 7 7 0 0 1 5.35.6 7 7 0 0 1-1.45 12.85 6.82 6.82 0 0 1-3.07.19 6.68 6.68 0 0 1-1.69-.49l-.34-.16-.25-.14a1.47 1.47 0 0 0-1.12-.12 1.42 1.42 0 0 0-.49.25 1.57 1.57 0 0 0-.39.45 1.48 1.48 0 0 0 .58 2 11.56 11.56 0 0 0 1.44.65.24.24 0 0 1 0 .08 8.55 8.55 0 0 1 .14.86 7 7 0 0 1-6.33 7.68 7 7 0 0 1-7.68-6.33 7.06 7.06 0 0 1 .28-2.75 9.85 9.85 0 0 0 5.73.37 1.46 1.46 0 1 0-.66-2.85 7 7 0 0 1-3.63-.13 5.77 5.77 0 0 1-1.38-.58 6.24 6.24 0 0 1-1.21-.84 6.94 6.94 0 0 1-2.23-3.7 7 7 0 0 1 5.26-8.44zM308.91 217.59z" transform="translate(-188.2 -132.89)"/><g class="cls-4"><path class="cls-5" d="M294 216.84s2.36 7.82 9.59 5.42a5.78 5.78 0 0 0 4.07-7.34s9.4.12 7.67-8.24c-1.43-6.93-10.34-3.12-10.34-3.12l6.77-4.2 6.88 2.28a62.05 62.05 0 0 1 1.91 6c-.05.58-1.7 6.93-1.7 6.93l-4.85 2-3.55.33.28 4.13-2.73 5.08s-5.39 1.36-6 1.32-5.18-1.56-5.18-1.56l-2.66-3.73z" transform="translate(-188.2 -132.89)"/></g><path class="cls-1" d="M289.1 210.07a9.89 9.89 0 0 0 3.64 5.62 10 10 0 1 0 19.26 2.56v-.07a10 10 0 0 0 9-5.14 10 10 0 0 0-15.24-12.36 10.06 10.06 0 0 0-6.23-2.82 10 10 0 0 0-10.44 12.21zm21.24-8.61a7 7 0 0 1 5.35.6 7 7 0 0 1-1.45 12.94 6.82 6.82 0 0 1-3.07.19 6.68 6.68 0 0 1-1.69-.49l-.34-.16-.25-.14a1.47 1.47 0 0 0-1.12-.12 1.42 1.42 0 0 0-.49.25 1.57 1.57 0 0 0-.39.45 1.48 1.48 0 0 0 .58 2 11.56 11.56 0 0 0 1.44.65 8.55 8.55 0 0 1 .14.86 7 7 0 0 1-6.33 7.68 7 7 0 0 1-7.68-6.33 7.06 7.06 0 0 1 .28-2.75 9.85 9.85 0 0 0 5.73.37 1.46 1.46 0 1 0-.66-2.85 7 7 0 0 1-3.63-.13 5.77 5.77 0 0 1-1.38-.58 6.24 6.24 0 0 1-1.21-.84 6.94 6.94 0 0 1-2.23-3.7 7 7 0 0 1 11.9-6.48c-.1.15-.2.32-.29.48a1.45 1.45 0 0 0 .57 2 1.43 1.43 0 0 0 1.12.12.49.49 0 0 0 .17-.06 1.43 1.43 0 0 0 .7-.63c.12-.21.24-.41.37-.61a6.63 6.63 0 0 1 1.05-1.19 6.86 6.86 0 0 1 2.81-1.53z" transform="translate(-188.2 -132.89)"/><g class="cls-6"><ellipse class="cls-7" cx="298.11" cy="207.8" rx="3.3" ry="2.11" transform="rotate(-25.72 -86.974 553.566)"/></g><path class="cls-3" d="M370.61 146.55h.07z" transform="translate(-188.2 -132.89)"/><path class="cls-1" d="M370.61 146.55h.07z" transform="translate(-188.2 -132.89)"/><path class="cls-3" d="M353.58 157.69a7 7 0 0 1 2.19-6.59c.16.1.32.21.48.3a1.46 1.46 0 0 0 2-.5 1.41 1.41 0 0 0 .15-1.11.61.61 0 0 0-.05-.18 1.42 1.42 0 0 0-.61-.72c-.2-.12-.4-.25-.59-.39a7 7 0 0 1-1.16-1.08 7.1 7.1 0 0 1-1.46-2.85 7 7 0 1 1 13.72-.36 6.68 6.68 0 0 1-.55 1.67l-.17.33-.14.25a1.47 1.47 0 0 0-.17 1.11 1.75 1.75 0 0 0 .23.5 1.42 1.42 0 0 0 .44.4 1.47 1.47 0 0 0 2-.5 10.38 10.38 0 0 0 .7-1.42h.09a8.08 8.08 0 0 1 .86-.11 7 7 0 0 1 .87 14.05 7.23 7.23 0 0 1-2.74-.38 9.85 9.85 0 0 0 .56-5.71 1.47 1.47 0 0 0-1.72-1.15 1.49 1.49 0 0 0-.94.61 1.52 1.52 0 0 0-.21 1.11 7 7 0 0 1-.25 3.62 6.22 6.22 0 0 1-.63 1.36 5.88 5.88 0 0 1-.88 1.17 7 7 0 0 1-3.77 2.11 7 7 0 0 1-8.25-5.54zM370.61 146.55h.07z" transform="translate(-188.2 -132.89)"/><g class="cls-4"><path class="cls-5" d="M369.35 161.41s7.9-2.09 5.75-9.39a5.79 5.79 0 0 0-7.2-4.33s.44-9.38-8-7.94c-7 1.2-3.48 10.23-3.48 10.23l-4-6.91 2.51-6.8a61.87 61.87 0 0 1 6.08-1.7c.59.06 6.87 1.93 6.87 1.93l1.82 4.91.3 3.59 4.14-.14 5 2.91s1.17 5.43 1.11 6-1.74 5.12-1.74 5.12l-3.81 2.53z" transform="translate(-188.2 -132.89)"/></g><path class="cls-1" d="M362.42 166.09a9.92 9.92 0 0 0 5.74-3.44 10.14 10.14 0 0 0 4.45.74 10 10 0 0 0 9.32-10.56 10 10 0 0 0-10.56-9.33h-.07a10.13 10.13 0 0 0-.28-3.09 10 10 0 1 0-19.32 4.86 9.78 9.78 0 0 0 1.9 3.83 10 10 0 0 0 8.82 17zm-7.88-21.52a7 7 0 1 1 13.72-.36 6.68 6.68 0 0 1-.55 1.67l-.17.33-.14.25a1.47 1.47 0 0 0-.17 1.11 1.75 1.75 0 0 0 .23.5 1.42 1.42 0 0 0 .44.4 1.47 1.47 0 0 0 2-.5 10.38 10.38 0 0 0 .7-1.42h.07a8.08 8.08 0 0 1 .86-.11 7 7 0 0 1 .87 14.05 7.23 7.23 0 0 1-2.74-.38 9.85 9.85 0 0 0 .56-5.71 1.47 1.47 0 0 0-1.72-1.15 1.49 1.49 0 0 0-.94.61 1.52 1.52 0 0 0-.21 1.11 7 7 0 0 1-.25 3.62 6.22 6.22 0 0 1-.63 1.36 5.88 5.88 0 0 1-.88 1.17 7 7 0 0 1-3.77 2.11 7 7 0 0 1-6.08-12.11c.16.1.32.21.48.3a1.46 1.46 0 0 0 2-.5 1.41 1.41 0 0 0 .15-1.11.61.61 0 0 0-.05-.18 1.42 1.42 0 0 0-.61-.72c-.2-.12-.4-.25-.59-.39a7 7 0 0 1-1.16-1.08 7.1 7.1 0 0 1-1.42-2.87z" transform="translate(-188.2 -132.89)"/><g class="cls-6"><ellipse class="cls-7" cx="360.46" cy="157.01" rx="2.11" ry="3.3" transform="rotate(-23.77 -49.303 537.697)"/></g><path class="cls-3" d="M361.39 195.62z" transform="translate(-188.2 -132.89)"/><path class="cls-1" d="M361.39 195.62z" transform="translate(-188.2 -132.89)"/><path class="cls-3" d="M342.85 187.22a7 7 0 0 1 6.74-1.68v.56a1.48 1.48 0 0 0 1.51 1.43 1.42 1.42 0 0 0 1-.47.74.74 0 0 0 .12-.13 1.51 1.51 0 0 0 .28-.91v-.71a7 7 0 0 1 1.91-4.31 7 7 0 0 1 10.21 9.67 7.12 7.12 0 0 1-2.55 1.71 6.71 6.71 0 0 1-1.71.43H359.7a1.49 1.49 0 0 0-1.32.92 1.44 1.44 0 0 0-.1.59 1.47 1.47 0 0 0 1.5 1.42 10.46 10.46 0 0 0 1.58-.17l.05.06a6.73 6.73 0 0 1 .55.67 7 7 0 0 1-11.38 8.27 7.14 7.14 0 0 1-1.15-2.51 9.91 9.91 0 0 0 5.12-2.59 1.48 1.48 0 0 0 .05-2.08 1.47 1.47 0 0 0-2.07-.05 6.93 6.93 0 0 1-3.19 1.74 5.67 5.67 0 0 1-1.48.19 6.08 6.08 0 0 1-1.47-.11 6.94 6.94 0 0 1-3.8-2.05 7 7 0 0 1 .26-9.89zM361.39 195.62z" transform="translate(-188.2 -132.89)"/><g class="cls-4"><path class="cls-5" d="M348.16 202.53s6 5.54 11-.19A5.78 5.78 0 0 0 359 194s8.15-4.66 2.43-11c-4.75-5.25-10.5 2.55-10.5 2.55l3.71-7 7.09-1.53a60.38 60.38 0 0 1 4.69 4.23c.26.52 2.05 6.83 2.05 6.83l-3.17 4.17-2.9 2.08 2.34 3.42.22 5.77s-4 3.9-4.48 4.16-5.25 1.27-5.25 1.27L351 207z" transform="translate(-188.2 -132.89)"/></g><path class="cls-1" d="M340.5 199.18a10 10 0 0 0 6 3 10 10 0 0 0 1.76 4.15 10 10 0 1 0 16.12-11.71 10 10 0 0 0-5-18.71 10 10 0 0 0-4.13 1 10.16 10.16 0 0 0-2.84 2.1 9.93 9.93 0 0 0-2.21 3.66 9.92 9.92 0 0 0-6.79.73 10.12 10.12 0 0 0-2.48 1.72 10 10 0 0 0-.43 14.06zM354.44 181a7 7 0 0 1 10.21 9.67 7.12 7.12 0 0 1-2.55 1.71 6.71 6.71 0 0 1-1.71.43H359.73a1.49 1.49 0 0 0-1.32.92 1.44 1.44 0 0 0-.1.59 1.47 1.47 0 0 0 1.5 1.42 10.46 10.46 0 0 0 1.58-.17 6.73 6.73 0 0 1 .55.67 7 7 0 0 1-11.38 8.27 7.14 7.14 0 0 1-1.15-2.51 9.91 9.91 0 0 0 5.12-2.59 1.48 1.48 0 0 0 .05-2.08 1.47 1.47 0 0 0-2.07-.05 6.93 6.93 0 0 1-3.19 1.74 5.67 5.67 0 0 1-1.48.19 6.08 6.08 0 0 1-1.47-.11 6.94 6.94 0 0 1-3.8-2.05 7 7 0 0 1 7-11.62v.56a1.48 1.48 0 0 0 1.51 1.43 1.42 1.42 0 0 0 1-.47.74.74 0 0 0 .12-.13 1.51 1.51 0 0 0 .28-.91v-.71a7 7 0 0 1 1.91-4.31z" transform="translate(-188.2 -132.89)"/><g class="cls-6"><ellipse class="cls-7" cx="347.11" cy="192.66" rx="3.3" ry="2.11" transform="rotate(-56.19 128.536 302.488)"/></g><path class="cls-3" d="M385.44 190.28v.06z" transform="translate(-188.2 -132.89)"/><path class="cls-1" d="M385.44 190.28v.06z" transform="translate(-188.2 -132.89)"/><path class="cls-3" d="M366.9 181.87a7 7 0 0 1 6.74-1.68 5.23 5.23 0 0 0 0 .56 1.46 1.46 0 0 0 1.5 1.43 1.4 1.4 0 0 0 1-.46.53.53 0 0 0 .12-.14 1.42 1.42 0 0 0 .28-.9v-.71a6.72 6.72 0 0 1 .29-1.56 7 7 0 0 1 1.62-2.76 7 7 0 1 1 7.7 11.35 6.71 6.71 0 0 1-1.71.43h-.65a1.42 1.42 0 0 0-1 .46 1.31 1.31 0 0 0-.3.46 1.39 1.39 0 0 0-.1.58 1.46 1.46 0 0 0 1.5 1.42 10.32 10.32 0 0 0 1.58-.16l.05.06a6 6 0 0 1 .56.67 7 7 0 0 1-1.57 9.82 7 7 0 0 1-11-4.07 9.91 9.91 0 0 0 5.12-2.59 1.47 1.47 0 0 0-1-2.53 1.5 1.5 0 0 0-1.05.41 6.82 6.82 0 0 1-3.19 1.73 6.14 6.14 0 0 1-1.48.2 6.62 6.62 0 0 1-1.47-.11 7 7 0 0 1-3.57-12zM385.44 190.28v.06z" transform="translate(-188.2 -132.89)"/><g class="cls-4"><path class="cls-5" d="M372.21 197.18s6 5.55 11-.19a5.77 5.77 0 0 0-.2-8.38s8.15-4.67 2.43-11c-4.75-5.25-10.5 2.55-10.5 2.55l3.71-7 7.09-1.53a62.18 62.18 0 0 1 4.69 4.22c.26.53 2.05 6.83 2.05 6.83l-3.17 4.17-2.9 2.08 2.34 3.42.22 5.77s-4 3.91-4.48 4.16-5.25 1.28-5.25 1.28l-4.18-1.86z" transform="translate(-188.2 -132.89)"/></g><path class="cls-1" d="M364.55 193.84a9.9 9.9 0 0 0 6 3 10 10 0 0 0 8.26 8.14 10 10 0 0 0 9.62-15.69v-.06a10 10 0 0 0-9.17-17.69 10 10 0 0 0-5.05 5.75 10 10 0 0 0-6.79.73 10 10 0 0 0-2.81 15.82zm13.94-18.19a7 7 0 1 1 7.66 11.35 6.71 6.71 0 0 1-1.71.43h-.65a1.42 1.42 0 0 0-1 .46 1.31 1.31 0 0 0-.3.46 1.39 1.39 0 0 0-.1.58 1.46 1.46 0 0 0 1.5 1.42 10.32 10.32 0 0 0 1.58-.16v.06a6 6 0 0 1 .56.67 7 7 0 0 1-1.57 9.82 7 7 0 0 1-11-4.07 9.91 9.91 0 0 0 5.12-2.59 1.47 1.47 0 0 0-1-2.53 1.5 1.5 0 0 0-1.05.41 6.82 6.82 0 0 1-3.19 1.73 6.14 6.14 0 0 1-1.48.2 6.62 6.62 0 0 1-1.47-.11 7 7 0 1 1 3.17-13.68 5.23 5.23 0 0 0 0 .56 1.46 1.46 0 0 0 1.5 1.43 1.4 1.4 0 0 0 1-.46.53.53 0 0 0 .12-.14 1.42 1.42 0 0 0 .28-.9v-.71a6.72 6.72 0 0 1 .29-1.56 7 7 0 0 1 1.74-2.67z" transform="translate(-188.2 -132.89)"/><g class="cls-6"><ellipse class="cls-7" cx="371.16" cy="187.31" rx="3.3" ry="2.11" transform="rotate(-56.19 152.585 297.14)"/></g><path class="cls-3" d="M406.82 194.28v.06s.01-.03 0-.06z" transform="translate(-188.2 -132.89)"/><path class="cls-1" d="M406.82 194.28v.06s.01-.03 0-.06z" transform="translate(-188.2 -132.89)"/><path class="cls-3" d="M388.28 185.88a7 7 0 0 1 6.72-1.68v.56a1.48 1.48 0 0 0 1.51 1.43 1.45 1.45 0 0 0 1-.46.81.81 0 0 0 .12-.14 1.48 1.48 0 0 0 .28-.9v-.72a6.74 6.74 0 0 1 .29-1.55 7 7 0 0 1 6.53-4.95 7 7 0 0 1 5.3 11.86 7 7 0 0 1-2.55 1.72 7.15 7.15 0 0 1-1.71.43H405.11a1.49 1.49 0 0 0-1 .46 1.52 1.52 0 0 0-.3.46 1.47 1.47 0 0 0 1.4 2 9.31 9.31 0 0 0 1.58-.17l.05.07a5 5 0 0 1 .55.67 7 7 0 0 1-11.39 8.31 6.82 6.82 0 0 1-1.15-2.51 9.91 9.91 0 0 0 5.12-2.59 1.47 1.47 0 0 0 .05-2.07 1.48 1.48 0 0 0-1-.46 1.45 1.45 0 0 0-1.05.41 6.82 6.82 0 0 1-3.19 1.73 6.2 6.2 0 0 1-1.48.2 6.62 6.62 0 0 1-1.47-.11 7 7 0 0 1-3.57-12z" transform="translate(-188.2 -132.89)"/><path class="cls-3" d="M406.82 194.28v.06s.01-.03 0-.06z" transform="translate(-188.2 -132.89)"/><g class="cls-4"><path class="cls-5" d="M393.59 201.19s6 5.55 11-.19a5.77 5.77 0 0 0-.21-8.38s8.16-4.67 2.44-11c-4.75-5.25-10.5 2.56-10.5 2.56l3.71-7.06 7.09-1.52a62.18 62.18 0 0 1 4.69 4.22c.26.53 2.05 6.83 2.05 6.83l-3.17 4.17-2.9 2.08 2.34 3.42.22 5.77s-4 3.9-4.48 4.16-5.25 1.28-5.25 1.28l-4.18-1.86z" transform="translate(-188.2 -132.89)"/></g><path class="cls-1" d="M385.93 197.85a9.88 9.88 0 0 0 6 3 10 10 0 0 0 1.76 4.15 10 10 0 1 0 16.12-11.7v-.06a10.11 10.11 0 0 0 2.45-1.89 10 10 0 0 0-7.5-16.81 9.7 9.7 0 0 0-4.12 1 10.13 10.13 0 0 0-2.84 2.09 10 10 0 0 0-2.21 3.66 10 10 0 0 0-9.6 16.55zm13.93-18.19a7 7 0 1 1 7.67 11.39 7.15 7.15 0 0 1-1.71.43H405.16a1.49 1.49 0 0 0-1 .46 1.52 1.52 0 0 0-.3.46 1.47 1.47 0 0 0 1.4 2 9.31 9.31 0 0 0 1.58-.17v.06a5 5 0 0 1 .55.67 7 7 0 0 1-11.39 8.32 6.82 6.82 0 0 1-1.15-2.51 9.91 9.91 0 0 0 5.12-2.59 1.47 1.47 0 0 0 .05-2.07 1.48 1.48 0 0 0-1-.46 1.45 1.45 0 0 0-1.05.41 6.82 6.82 0 0 1-3.19 1.73 6.2 6.2 0 0 1-1.48.2 6.62 6.62 0 0 1-1.47-.11A7 7 0 1 1 395 184.2v.56a1.48 1.48 0 0 0 1.51 1.43 1.45 1.45 0 0 0 1-.46.81.81 0 0 0 .12-.14 1.48 1.48 0 0 0 .28-.9v-.72a6.74 6.74 0 0 1 .29-1.55 7 7 0 0 1 1.66-2.76z" transform="translate(-188.2 -132.89)"/><g class="cls-6"><ellipse class="cls-7" cx="392.54" cy="191.32" rx="3.3" ry="2.11" transform="rotate(-56.19 173.96 301.15)"/></g><path class="cls-3" d="M421.51 211.66v.06a.34.34 0 0 0 0-.06z" transform="translate(-188.2 -132.89)"/><path class="cls-1" d="M421.51 211.66v.06a.34.34 0 0 0 0-.06z" transform="translate(-188.2 -132.89)"/><path class="cls-3" d="M403 203.25a7 7 0 0 1 6.74-1.68v.56a1.46 1.46 0 0 0 2.53 1l.12-.14a1.48 1.48 0 0 0 .28-.9 5.77 5.77 0 0 1 0-.72 6.24 6.24 0 0 1 .29-1.55 7 7 0 0 1 6.53-4.95 7 7 0 0 1 7.22 6.83 7 7 0 0 1-4.47 6.75 7.15 7.15 0 0 1-1.71.43H419.87a1.49 1.49 0 0 0-1 .45 1.7 1.7 0 0 0-.29.46 1.44 1.44 0 0 0-.11.59 1.46 1.46 0 0 0 1.51 1.42 10.19 10.19 0 0 0 1.57-.16.34.34 0 0 1 .06.06 5.94 5.94 0 0 1 .55.67 7 7 0 0 1-11.38 8.26 6.82 6.82 0 0 1-1.15-2.51 9.91 9.91 0 0 0 5.12-2.59 1.47 1.47 0 0 0 .05-2.07 1.49 1.49 0 0 0-1-.46 1.45 1.45 0 0 0-1 .41 6.92 6.92 0 0 1-3.19 1.73 6.29 6.29 0 0 1-1.49.2 6.53 6.53 0 0 1-1.46-.11 7 7 0 0 1-3.57-12z" transform="translate(-188.2 -132.89)"/><path class="cls-3" d="M421.51 211.66v.06a.34.34 0 0 0 0-.06z" transform="translate(-188.2 -132.89)"/><g class="cls-4"><path class="cls-5" d="M408.29 218.56s6 5.55 11-.19a5.77 5.77 0 0 0-.21-8.38s8.16-4.67 2.43-11c-4.75-5.25-10.5 2.56-10.5 2.56l3.72-7.06 7.09-1.52a60.3 60.3 0 0 1 4.68 4.22c.26.53 2.06 6.83 2.06 6.83l-3.18 4.17-2.89 2.08 2.33 3.42.23 5.77s-4 3.9-4.48 4.16-5.25 1.28-5.25 1.28l-4.18-1.9z" transform="translate(-188.2 -132.89)"/></g><path class="cls-1" d="M400.62 215.22a9.9 9.9 0 0 0 6 3 10 10 0 0 0 8.26 8.14 10 10 0 0 0 9.62-15.69v-.06a10.11 10.11 0 0 0 2.45-1.89 10 10 0 0 0-7.5-16.81 9.82 9.82 0 0 0-4.12 1 10 10 0 0 0-2.84 2.09 9.88 9.88 0 0 0-2.21 3.66 10.08 10.08 0 0 0-6.8.73 9.85 9.85 0 0 0-2.47 1.73 10 10 0 0 0-.39 14.1zM414.56 197a7 7 0 1 1 7.67 11.39 7.15 7.15 0 0 1-1.71.43H419.86a1.49 1.49 0 0 0-1 .45 1.7 1.7 0 0 0-.29.46 1.44 1.44 0 0 0-.11.59 1.46 1.46 0 0 0 1.51 1.42 10.19 10.19 0 0 0 1.57-.16v.06a5.94 5.94 0 0 1 .55.67 7 7 0 0 1-11.38 8.26 6.82 6.82 0 0 1-1.15-2.51 9.91 9.91 0 0 0 5.12-2.59 1.47 1.47 0 0 0 .05-2.07 1.49 1.49 0 0 0-1-.46 1.45 1.45 0 0 0-1 .41 6.92 6.92 0 0 1-3.19 1.73 6.29 6.29 0 0 1-1.49.2 6.53 6.53 0 0 1-1.46-.11 7 7 0 1 1 3.17-13.68v.56a1.46 1.46 0 0 0 2.53 1l.12-.14a1.48 1.48 0 0 0 .28-.9 5.77 5.77 0 0 1 0-.72 6.24 6.24 0 0 1 .29-1.55 7 7 0 0 1 1.58-2.74z" transform="translate(-188.2 -132.89)"/><g class="cls-6"><ellipse class="cls-7" cx="407.24" cy="208.69" rx="3.3" ry="2.11" transform="rotate(-56.19 188.663 318.519)"/></g><path class="cls-3" d="M394.79 210.32v.06z" transform="translate(-188.2 -132.89)"/><path class="cls-1" d="M394.79 210.32v.06z" transform="translate(-188.2 -132.89)"/><path class="cls-3" d="M376.26 201.91a7 7 0 0 1 6.73-1.68v.57a1.46 1.46 0 0 0 1.5 1.42 1.4 1.4 0 0 0 1-.46.86.86 0 0 0 .13-.14 1.46 1.46 0 0 0 .28-.9v-.71a6.83 6.83 0 0 1 .3-1.56 6.91 6.91 0 0 1 1.61-2.76 7 7 0 1 1 10.21 9.67 6.86 6.86 0 0 1-2.55 1.72 6.5 6.5 0 0 1-1.71.43H393.11a1.44 1.44 0 0 0-1 .46 1.83 1.83 0 0 0-.3.46 1.61 1.61 0 0 0-.1.58 1.47 1.47 0 0 0 1.5 1.43 10.19 10.19 0 0 0 1.58-.17l.06.06a7.27 7.27 0 0 1 .55.67 7 7 0 0 1-11.4 8.32 7.14 7.14 0 0 1-1.15-2.51 9.85 9.85 0 0 0 5.13-2.6 1.47 1.47 0 0 0 0-2.07 1.51 1.51 0 0 0-1-.46 1.49 1.49 0 0 0-1 .41 7 7 0 0 1-3.19 1.74 6.27 6.27 0 0 1-1.49.19 6 6 0 0 1-1.46-.11 7 7 0 0 1-3.57-12zM394.79 210.32v.06z" transform="translate(-188.2 -132.89)"/><g class="cls-4"><path class="cls-5" d="M381.57 217.23s6 5.54 11-.19a5.78 5.78 0 0 0-.21-8.39s8.15-4.66 2.43-11c-4.75-5.25-10.5 2.55-10.5 2.55l3.72-7.05 7.08-1.53a60.38 60.38 0 0 1 4.69 4.23c.26.52 2 6.82 2 6.82l-3.17 4.18-2.9 2.07 2.34 3.43.22 5.76s-3.95 3.91-4.48 4.17-5.25 1.27-5.25 1.27l-4.18-1.86z" transform="translate(-188.2 -132.89)"/></g><path class="cls-1" d="M373.9 213.88a10 10 0 0 0 6 3 9.68 9.68 0 0 0 1.76 4.14 10 10 0 0 0 16.12-11.7v-.06a9.73 9.73 0 0 0 2.46-1.89 10 10 0 0 0-7.5-16.81 9.82 9.82 0 0 0-7 3.11 9.8 9.8 0 0 0-2.21 3.66 10 10 0 0 0-9.61 16.54zm13.94-18.19a7 7 0 1 1 10.21 9.67 6.86 6.86 0 0 1-2.55 1.72 6.5 6.5 0 0 1-1.71.43H393.14a1.44 1.44 0 0 0-1 .46 1.83 1.83 0 0 0-.3.46 1.61 1.61 0 0 0-.1.58 1.47 1.47 0 0 0 1.5 1.43 10.19 10.19 0 0 0 1.58-.17v.06a7.27 7.27 0 0 1 .55.67 7 7 0 0 1-11.37 8.32 7.14 7.14 0 0 1-1.15-2.51 9.85 9.85 0 0 0 5.13-2.6 1.47 1.47 0 0 0 0-2.07 1.51 1.51 0 0 0-1-.46 1.49 1.49 0 0 0-1 .41 7 7 0 0 1-3.19 1.74 6.27 6.27 0 0 1-1.49.19 6 6 0 0 1-1.46-.11 7 7 0 1 1 3.16-13.68v.57a1.46 1.46 0 0 0 1.5 1.42 1.4 1.4 0 0 0 1-.46.86.86 0 0 0 .13-.14 1.46 1.46 0 0 0 .28-.9v-.71a6.83 6.83 0 0 1 .3-1.56 6.91 6.91 0 0 1 1.63-2.76z" transform="translate(-188.2 -132.89)"/><g class="cls-6"><ellipse class="cls-7" cx="380.52" cy="207.36" rx="3.3" ry="2.11" transform="rotate(-56.19 161.933 317.188)"/></g><path class="cls-3" d="M376.08 203.64v.06z" transform="translate(-188.2 -132.89)"/><path class="cls-1" d="M376.08 203.64v.06z" transform="translate(-188.2 -132.89)"/><path class="cls-3" d="M357.55 195.23a7 7 0 0 1 6.74-1.68v.57a1.46 1.46 0 0 0 1.51 1.42 1.43 1.43 0 0 0 1-.46.81.81 0 0 0 .12-.14 1.46 1.46 0 0 0 .28-.9 5.56 5.56 0 0 1 0-.71 6.32 6.32 0 0 1 .29-1.56 7 7 0 1 1 9.28 8.63 6.71 6.71 0 0 1-1.71.43H374.4a1.41 1.41 0 0 0-1 .46 1.31 1.31 0 0 0-.3.46 1.27 1.27 0 0 0-.1.58 1.46 1.46 0 0 0 1.5 1.43 11.6 11.6 0 0 0 1.57-.17l.06.06a5.94 5.94 0 0 1 .55.67 7 7 0 1 1-11.38 8.26 6.82 6.82 0 0 1-1.15-2.51 9.77 9.77 0 0 0 5.12-2.59 1.47 1.47 0 0 0 .05-2.07 1.53 1.53 0 0 0-1-.46 1.49 1.49 0 0 0-1 .41 6.92 6.92 0 0 1-3.19 1.73 6.29 6.29 0 0 1-1.49.2 6.53 6.53 0 0 1-1.46-.11 7 7 0 0 1-3.8-2 7.05 7.05 0 0 1 .17-9.95zM376.08 203.64v.06z" transform="translate(-188.2 -132.89)"/><g class="cls-4"><path class="cls-5" d="M362.86 210.55s6 5.54 11-.19a5.78 5.78 0 0 0-.21-8.39s8.16-4.67 2.43-11c-4.75-5.25-10.5 2.55-10.5 2.55l3.72-7.05 7.1-1.47a58.61 58.61 0 0 1 4.68 4.23c.26.52 2.06 6.82 2.06 6.82l-3.14 4.13-2.89 2.07 2.33 3.43.23 5.76s-4 3.91-4.48 4.17-5.25 1.27-5.25 1.27l-4.22-1.88z" transform="translate(-188.2 -132.89)"/></g><path class="cls-1" d="M355.19 207.2a9.9 9.9 0 0 0 6 3 10 10 0 0 0 8.26 8.14 10 10 0 0 0 9.62-15.69v-.06a10.11 10.11 0 0 0 2.45-1.89 10 10 0 0 0-11.62-15.8 10 10 0 0 0-5.05 5.75 10 10 0 0 0-6.8.74 9.8 9.8 0 0 0-2.47 1.72 10 10 0 0 0-.39 14.09zm13.94-18.2a7 7 0 1 1 7.67 11.39 6.71 6.71 0 0 1-1.71.43H374.43a1.41 1.41 0 0 0-1 .46 1.31 1.31 0 0 0-.3.46 1.27 1.27 0 0 0-.1.58 1.46 1.46 0 0 0 1.5 1.43 11.6 11.6 0 0 0 1.57-.17v.06a5.94 5.94 0 0 1 .55.67 7 7 0 1 1-11.38 8.26 6.82 6.82 0 0 1-1.15-2.51 9.77 9.77 0 0 0 5.12-2.59 1.47 1.47 0 0 0 .05-2.07 1.53 1.53 0 0 0-1-.46 1.49 1.49 0 0 0-1 .41 6.92 6.92 0 0 1-3.19 1.73 6.29 6.29 0 0 1-1.49.2 6.53 6.53 0 0 1-1.46-.11 7 7 0 0 1-3.8-2 7 7 0 0 1 7-11.63v.57a1.46 1.46 0 0 0 1.51 1.42 1.43 1.43 0 0 0 1-.46.81.81 0 0 0 .12-.14 1.46 1.46 0 0 0 .28-.9 5.56 5.56 0 0 1 0-.71 6.32 6.32 0 0 1 .29-1.56 7 7 0 0 1 1.58-2.76z" transform="translate(-188.2 -132.89)"/><g class="cls-6"><ellipse class="cls-7" cx="361.81" cy="200.67" rx="3.3" ry="2.11" transform="rotate(-56.19 143.236 310.504)"/></g><path class="cls-3" d="M360.05 215.66v.05z" transform="translate(-188.2 -132.89)"/><path class="cls-1" d="M360.05 215.66v.05z" transform="translate(-188.2 -132.89)"/><path class="cls-3" d="M341.52 207.26a7 7 0 0 1 6.73-1.68v.56a1.46 1.46 0 0 0 1.5 1.43 1.43 1.43 0 0 0 1-.46l.13-.14a1.55 1.55 0 0 0 .28-.9v-.72a7.31 7.31 0 0 1 .29-1.55 7 7 0 1 1 11.83 6.91 7 7 0 0 1-4.26 2.15H358.37a1.48 1.48 0 0 0-1 .46 2 2 0 0 0-.3.46 1.63 1.63 0 0 0-.1.59 1.47 1.47 0 0 0 1.5 1.42 9.1 9.1 0 0 0 1.58-.17l.06.07a7.27 7.27 0 0 1 .55.67 7 7 0 0 1-11.39 8.26 7.14 7.14 0 0 1-1.15-2.51 9.91 9.91 0 0 0 5.13-2.59 1.47 1.47 0 0 0 0-2.07 1.42 1.42 0 0 0-1-.46 1.49 1.49 0 0 0-1 .41 6.82 6.82 0 0 1-3.19 1.73 5.67 5.67 0 0 1-1.48.19 6 6 0 0 1-1.46-.1 7 7 0 0 1-3.57-12zM360.05 215.66v.05z" transform="translate(-188.2 -132.89)"/><g class="cls-4"><path class="cls-5" d="M346.83 222.57s6 5.54 11-.19a5.78 5.78 0 0 0-.21-8.39s8.15-4.66 2.43-11c-4.75-5.25-10.5 2.55-10.5 2.55l3.72-7.05 7.08-1.52a62.18 62.18 0 0 1 4.69 4.22c.26.53 2.05 6.83 2.05 6.83l-3.17 4.17-2.9 2.08 2.34 3.42.22 5.77s-3.95 3.9-4.48 4.16-5.25 1.28-5.25 1.28l-4.18-1.86z" transform="translate(-188.2 -132.89)"/></g><path class="cls-1" d="M339.16 219.22a9.92 9.92 0 0 0 6 3 10 10 0 1 0 17.84-7.54v-.06a9.93 9.93 0 0 0 5.18-9 9.94 9.94 0 0 0-10.22-9.69 9.87 9.87 0 0 0-7 3.1 9.88 9.88 0 0 0-2.21 3.66 10 10 0 0 0-9.61 16.54zM353.1 201a7 7 0 1 1 10.21 9.67 7 7 0 0 1-4.26 2.15H358.4a1.48 1.48 0 0 0-1 .46 2 2 0 0 0-.3.46 1.63 1.63 0 0 0-.1.59 1.47 1.47 0 0 0 1.5 1.42 9.1 9.1 0 0 0 1.58-.17v.05a7.27 7.27 0 0 1 .55.67 7 7 0 0 1-11.39 8.26 7.14 7.14 0 0 1-1.15-2.51 9.91 9.91 0 0 0 5.13-2.59 1.47 1.47 0 0 0 0-2.07 1.42 1.42 0 0 0-1-.46 1.49 1.49 0 0 0-1 .41 6.82 6.82 0 0 1-3.19 1.73 5.67 5.67 0 0 1-1.48.19 6 6 0 0 1-1.46-.1 7 7 0 1 1 3.16-13.68v.56a1.46 1.46 0 0 0 1.5 1.43 1.43 1.43 0 0 0 1-.46l.13-.14a1.55 1.55 0 0 0 .28-.9v-.72a7.31 7.31 0 0 1 .29-1.55 7 7 0 0 1 1.65-2.7z" transform="translate(-188.2 -132.89)"/><g class="cls-6"><ellipse class="cls-7" cx="345.78" cy="212.7" rx="3.3" ry="2.11" transform="rotate(-56.19 127.198 322.534)"/></g><path class="cls-3" d="M345.35 210.32v.06z" transform="translate(-188.2 -132.89)"/><path class="cls-1" d="M345.35 210.32v.06z" transform="translate(-188.2 -132.89)"/><path class="cls-3" d="M326.82 201.91a7 7 0 0 1 6.73-1.68v.57a1.46 1.46 0 0 0 1.51 1.42 1.43 1.43 0 0 0 1-.46l.12-.14a1.46 1.46 0 0 0 .28-.9v-.71a6.83 6.83 0 0 1 .3-1.56 6.91 6.91 0 0 1 1.61-2.76 7 7 0 1 1 7.67 11.39 6.71 6.71 0 0 1-1.71.43H343.67a1.44 1.44 0 0 0-1 .46 1.56 1.56 0 0 0-.29.46 1.43 1.43 0 0 0-.11.58 1.48 1.48 0 0 0 1.51 1.43 10.19 10.19 0 0 0 1.57-.17l.06.06a7.27 7.27 0 0 1 .55.67 7 7 0 0 1-11.39 8.27 7.32 7.32 0 0 1-1.15-2.51 9.85 9.85 0 0 0 5.13-2.6 1.46 1.46 0 0 0 0-2.07 1.51 1.51 0 0 0-1-.46 1.49 1.49 0 0 0-1 .41 7 7 0 0 1-3.19 1.74 6.27 6.27 0 0 1-1.49.19 6 6 0 0 1-1.46-.11 7 7 0 0 1-3.57-12zM345.35 210.32v.06z" transform="translate(-188.2 -132.89)"/><g class="cls-4"><path class="cls-5" d="M332.13 217.23s6 5.54 11-.19a5.78 5.78 0 0 0-.21-8.39s8.16-4.66 2.43-11c-4.75-5.25-10.5 2.55-10.5 2.55l3.72-7.05 7.08-1.53a60.38 60.38 0 0 1 4.69 4.23c.26.52 2 6.82 2 6.82l-3.17 4.18-2.89 2.07 2.33 3.43.23 5.76s-4 3.91-4.49 4.17-5.25 1.27-5.25 1.27l-4.1-1.85z" transform="translate(-188.2 -132.89)"/></g><path class="cls-1" d="M324.46 213.88a10 10 0 0 0 6 3 10 10 0 0 0 15.67 6.35 10 10 0 0 0 2.21-13.91v-.06a10 10 0 0 0-5.05-18.7 9.82 9.82 0 0 0-7 3.11 9.8 9.8 0 0 0-2.21 3.66 10 10 0 0 0-6.8.73 9.8 9.8 0 0 0-2.47 1.72 10 10 0 0 0-.35 14.1zm13.94-18.19a7 7 0 1 1 7.67 11.39 6.71 6.71 0 0 1-1.71.43H343.7a1.44 1.44 0 0 0-1 .46 1.56 1.56 0 0 0-.29.46 1.43 1.43 0 0 0-.11.58 1.48 1.48 0 0 0 1.51 1.43 10.19 10.19 0 0 0 1.57-.17v.06a7.27 7.27 0 0 1 .55.67 7 7 0 0 1-11.39 8.27 7.32 7.32 0 0 1-1.15-2.51 9.85 9.85 0 0 0 5.13-2.6 1.46 1.46 0 0 0 0-2.07 1.51 1.51 0 0 0-1-.46 1.49 1.49 0 0 0-1 .41 7 7 0 0 1-3.19 1.74 6.27 6.27 0 0 1-1.49.19 6 6 0 0 1-1.46-.11 7 7 0 1 1 3.16-13.68v.57a1.46 1.46 0 0 0 1.51 1.42 1.43 1.43 0 0 0 1-.46l.12-.14a1.46 1.46 0 0 0 .28-.9v-.71a6.83 6.83 0 0 1 .3-1.56 6.91 6.91 0 0 1 1.65-2.71z" transform="translate(-188.2 -132.89)"/><g class="cls-6"><ellipse class="cls-7" cx="331.08" cy="207.36" rx="3.3" ry="2.11" transform="rotate(-56.19 112.507 317.183)"/></g><path class="cls-3" d="M405.48 219.67v.05z" transform="translate(-188.2 -132.89)"/><path class="cls-1" d="M405.48 219.67v.05z" transform="translate(-188.2 -132.89)"/><path class="cls-3" d="M387 211.27a7 7 0 0 1 6.73-1.68v.56a1.46 1.46 0 0 0 1.5 1.43 1.4 1.4 0 0 0 1-.47.8.8 0 0 0 .13-.13 1.58 1.58 0 0 0 .28-.91v-.71a7.31 7.31 0 0 1 .29-1.55 6.91 6.91 0 0 1 1.62-2.76 7 7 0 1 1 10.21 9.67 6.83 6.83 0 0 1-2.55 1.71 6.5 6.5 0 0 1-1.71.43H403.85a1.48 1.48 0 0 0-1 .46 1.83 1.83 0 0 0-.3.46 1.63 1.63 0 0 0-.1.59 1.47 1.47 0 0 0 1.5 1.42 9.1 9.1 0 0 0 1.58-.17l.06.07c.19.21.38.43.55.66a7 7 0 0 1-11.39 8.27 7.14 7.14 0 0 1-1.15-2.51 9.91 9.91 0 0 0 5.13-2.59 1.48 1.48 0 0 0 0-2.08 1.46 1.46 0 0 0-2.07 0 6.82 6.82 0 0 1-3.19 1.73 5.67 5.67 0 0 1-1.48.19 5.5 5.5 0 0 1-1.46-.11 6.93 6.93 0 0 1-3.81-2 7 7 0 0 1 .28-9.98zM405.48 219.67v.05z" transform="translate(-188.2 -132.89)"/><g class="cls-4"><path class="cls-5" d="M392.26 226.58s6 5.54 11-.19a5.79 5.79 0 0 0-.21-8.39s8.15-4.66 2.43-11c-4.75-5.25-10.5 2.55-10.5 2.55l3.72-7.05 7.08-1.52a60.07 60.07 0 0 1 4.69 4.22c.26.53 2 6.83 2 6.83l-3.17 4.17-2.9 2.08 2.34 3.42.22 5.77s-3.95 3.9-4.48 4.16-5.25 1.28-5.25 1.28l-4.18-1.87z" transform="translate(-188.2 -132.89)"/></g><path class="cls-1" d="M384.59 223.23a10 10 0 0 0 6 3 10 10 0 0 0 1.76 4.15 10 10 0 0 0 16.13-11.7v-.06a10 10 0 0 0-9.17-17.69 10 10 0 0 0-5 5.75 10 10 0 0 0-6.8.73 10.08 10.08 0 0 0-2.48 1.73 10 10 0 0 0-.44 14.09zm13.94-18.18a7 7 0 1 1 10.21 9.67 6.83 6.83 0 0 1-2.55 1.71 6.5 6.5 0 0 1-1.71.43H403.83a1.48 1.48 0 0 0-1 .46 1.83 1.83 0 0 0-.3.46 1.63 1.63 0 0 0-.1.59 1.47 1.47 0 0 0 1.5 1.42 9.1 9.1 0 0 0 1.58-.17v.05c.19.21.38.43.55.66a7 7 0 0 1-11.39 8.27 7.14 7.14 0 0 1-1.15-2.51 9.91 9.91 0 0 0 5.13-2.59 1.48 1.48 0 0 0 0-2.08 1.46 1.46 0 0 0-2.07 0 6.82 6.82 0 0 1-3.19 1.73 5.67 5.67 0 0 1-1.48.19 5.5 5.5 0 0 1-1.46-.11 6.93 6.93 0 0 1-3.81-2 7 7 0 0 1 7-11.62v.56a1.46 1.46 0 0 0 1.5 1.43 1.4 1.4 0 0 0 1-.47.8.8 0 0 0 .13-.13 1.58 1.58 0 0 0 .28-.91v-.71a7.31 7.31 0 0 1 .29-1.55 6.91 6.91 0 0 1 1.69-2.78z" transform="translate(-188.2 -132.89)"/><g class="cls-6"><ellipse class="cls-7" cx="391.21" cy="216.71" rx="3.3" ry="2.11" transform="rotate(-56.19 172.623 326.54)"/></g><path class="cls-3" d="M380.09 218.34v.06z" transform="translate(-188.2 -132.89)"/><path class="cls-1" d="M380.09 218.34v.06z" transform="translate(-188.2 -132.89)"/><path class="cls-3" d="M361.56 209.93a7 7 0 0 1 6.73-1.68v.56a1.46 1.46 0 0 0 2.53 1l.12-.14a1.48 1.48 0 0 0 .28-.9v-.71a6.73 6.73 0 0 1 .3-1.56 7 7 0 0 1 13.75 1.88 7 7 0 0 1-4.47 6.75 6.71 6.71 0 0 1-1.71.43H378.43a1.44 1.44 0 0 0-1 .46 1.51 1.51 0 0 0-.29.45 1.46 1.46 0 0 0 1.4 2 10.19 10.19 0 0 0 1.57-.16l.06.06a7.27 7.27 0 0 1 .55.67 7 7 0 1 1-12.53 5.75 9.91 9.91 0 0 0 5.12-2.59 1.46 1.46 0 1 0-2-2.12 6.92 6.92 0 0 1-3.19 1.73 6.29 6.29 0 0 1-1.49.2 6.53 6.53 0 0 1-1.46-.11 7 7 0 0 1-3.57-12zM380.09 218.34v.06z" transform="translate(-188.2 -132.89)"/><g class="cls-4"><path class="cls-5" d="M366.87 225.24s6 5.55 11-.19a5.77 5.77 0 0 0-.21-8.38s8.16-4.67 2.43-11c-4.75-5.26-10.5 2.55-10.5 2.55l3.72-7 7.08-1.53a62.18 62.18 0 0 1 4.69 4.22c.26.53 2.06 6.83 2.06 6.83l-3.14 4.13-2.92 2.13 2.33 3.42.23 5.77s-4 3.9-4.49 4.16-5.25 1.28-5.25 1.28l-4.18-1.86z" transform="translate(-188.2 -132.89)"/></g><path class="cls-1" d="M359.2 221.9a9.9 9.9 0 0 0 6 3 10 10 0 0 0 8.26 8.14 10 10 0 0 0 9.62-15.69v-.06a10.11 10.11 0 0 0 2.45-1.89 10 10 0 1 0-16.67-10.05 10.08 10.08 0 0 0-6.8.73 9.85 9.85 0 0 0-2.47 1.73 10 10 0 0 0-.39 14.09zm13.94-18.19a7 7 0 1 1 7.67 11.39 6.71 6.71 0 0 1-1.71.43H378.44a1.44 1.44 0 0 0-1 .46 1.51 1.51 0 0 0-.29.45 1.46 1.46 0 0 0 1.4 2 10.19 10.19 0 0 0 1.57-.16v.06a7.27 7.27 0 0 1 .55.67 7 7 0 1 1-12.53 5.75 9.91 9.91 0 0 0 5.12-2.59 1.46 1.46 0 1 0-2-2.12 6.92 6.92 0 0 1-3.19 1.73 6.29 6.29 0 0 1-1.49.2 6.53 6.53 0 0 1-1.46-.11 7 7 0 1 1 3.16-13.68v.56a1.46 1.46 0 0 0 2.53 1l.12-.14a1.48 1.48 0 0 0 .28-.9V208a6.73 6.73 0 0 1 .3-1.56 6.91 6.91 0 0 1 1.63-2.73z" transform="translate(-188.2 -132.89)"/><g class="cls-6"><ellipse class="cls-7" cx="365.82" cy="215.37" rx="3.3" ry="2.11" transform="rotate(-56.19 147.242 325.207)"/></g><path class="cls-3" d="M386.77 171.57v.05z" transform="translate(-188.2 -132.89)"/><path class="cls-1" d="M386.77 171.57v.05z" transform="translate(-188.2 -132.89)"/><path class="cls-3" d="M368.24 163.16a7 7 0 0 1 6.74-1.68v.57a1.47 1.47 0 0 0 1.51 1.43 1.48 1.48 0 0 0 1-.47l.12-.14a1.46 1.46 0 0 0 .28-.9 5.61 5.61 0 0 1 0-.71 6.41 6.41 0 0 1 .29-1.56 7 7 0 1 1 11.82 6.91 7 7 0 0 1-2.55 1.72 6.71 6.71 0 0 1-1.71.43H385.08a1.45 1.45 0 0 0-1 .46 1.56 1.56 0 0 0-.29.46 1.44 1.44 0 0 0-.11.59 1.48 1.48 0 0 0 1.51 1.42 10.19 10.19 0 0 0 1.57-.17l.06.06a7 7 0 1 1-12 6.43 9.86 9.86 0 0 0 5.12-2.6 1.47 1.47 0 0 0 0-2.07 1.53 1.53 0 0 0-1-.46 1.49 1.49 0 0 0-1 .41 7 7 0 0 1-3.19 1.74 6.27 6.27 0 0 1-1.49.19 6 6 0 0 1-1.46-.11 7 7 0 0 1-3.81-2 7.06 7.06 0 0 1 .25-9.95zM386.77 171.57v.05z" transform="translate(-188.2 -132.89)"/><g class="cls-4"><path class="cls-5" d="M373.55 178.48s6 5.54 11-.19a5.78 5.78 0 0 0-.21-8.39s8.16-4.66 2.43-11c-4.75-5.25-10.5 2.55-10.5 2.55l3.72-7.05 7.08-1.53a58.6 58.6 0 0 1 4.69 4.23c.26.52 2.06 6.83 2.06 6.83l-3.18 4.17-2.89 2.07 2.33 3.43.23 5.76s-4 3.91-4.48 4.17-5.25 1.27-5.25 1.27l-4.18-1.8z" transform="translate(-188.2 -132.89)"/></g><path class="cls-1" d="M365.88 175.13a10 10 0 0 0 6 3 10 10 0 0 0 1.76 4.15 10 10 0 1 0 16.12-11.71v-.05a10 10 0 0 0-9.17-17.7 10 10 0 0 0-2.84 2.1 9.8 9.8 0 0 0-2.21 3.66 10 10 0 0 0-6.8.73 9.8 9.8 0 0 0-2.47 1.72 10 10 0 0 0-.39 14.1zM379.82 157a7 7 0 1 1 7.67 11.38 6.71 6.71 0 0 1-1.71.43H385.12a1.45 1.45 0 0 0-1 .46 1.56 1.56 0 0 0-.29.46 1.44 1.44 0 0 0-.11.59 1.48 1.48 0 0 0 1.51 1.42 10.19 10.19 0 0 0 1.57-.17v.05a7 7 0 1 1-12 6.43 9.86 9.86 0 0 0 5.12-2.6 1.47 1.47 0 0 0 0-2.07 1.53 1.53 0 0 0-1-.46 1.49 1.49 0 0 0-1 .41 7 7 0 0 1-3.19 1.74 6.27 6.27 0 0 1-1.49.19 6 6 0 0 1-1.46-.11 7 7 0 0 1-3.81-2 7 7 0 0 1 7-11.63v.57a1.47 1.47 0 0 0 1.51 1.43 1.48 1.48 0 0 0 1-.47l.12-.14a1.46 1.46 0 0 0 .28-.9 5.61 5.61 0 0 1 0-.71 6.41 6.41 0 0 1 .29-1.56 6.92 6.92 0 0 1 1.65-2.74z" transform="translate(-188.2 -132.89)"/><g class="cls-6"><ellipse class="cls-7" cx="372.5" cy="168.61" rx="3.3" ry="2.11" transform="rotate(-56.19 153.925 278.443)"/></g><path class="cls-3" d="M409.45 163.87h-.08z" transform="translate(-188.2 -132.89)"/><path class="cls-1" d="M409.45 163.87h-.08z" transform="translate(-188.2 -132.89)"/><path class="cls-3" d="M389.52 168a7 7 0 0 1 4.46-5.32 4.84 4.84 0 0 0 .33.46 1.46 1.46 0 0 0 2.61-.7.61.61 0 0 0 0-.19 1.43 1.43 0 0 0-.3-.89c-.14-.19-.28-.39-.41-.59a7 7 0 0 1 6.89-10.67 7 7 0 0 1 6.07 7.88 7.08 7.08 0 0 1-1.05 2.89 7.64 7.64 0 0 1-1.13 1.35l-.28.24-.23.18a1.5 1.5 0 0 0-.56 1 1.71 1.71 0 0 0 0 .55 1.54 1.54 0 0 0 .26.53 1.48 1.48 0 0 0 2.06.27 10.76 10.76 0 0 0 1.17-1.06h.09a7.79 7.79 0 0 1 .83.22 7.06 7.06 0 0 1 4.52 8.87 7 7 0 0 1-11.27 3.15 10 10 0 0 0 2.62-5.11 1.46 1.46 0 0 0-1.18-1.7 1.44 1.44 0 0 0-1.7 1.18 7 7 0 0 1-1.57 3.28 6.21 6.21 0 0 1-1.08 1 6.36 6.36 0 0 1-1.25.77 6.94 6.94 0 0 1-4.29.57 7 7 0 0 1-5.61-8.16zM409.45 163.87h-.08z" transform="translate(-188.2 -132.89)"/><g class="cls-4"><path class="cls-5" d="M402.82 177.23s8.1 1 8.79-6.63a5.78 5.78 0 0 0-5.1-6.66s3.86-8.57-4.49-10.32c-6.93-1.46-7 8.24-7 8.24l-1.14-7.86 4.84-5.4a58.67 58.67 0 0 1 6.27.66c.52.27 5.68 4.31 5.68 4.31l-.11 5.24-1.13 3.39 3.91 1.39 3.57 4.53s-.91 5.49-1.18 6-3.5 4.12-3.5 4.12l-4.47.95z" transform="translate(-188.2 -132.89)"/></g><path class="cls-1" d="M394.65 179a10 10 0 0 0 6.61-1.09 9.79 9.79 0 0 0 3.86 2.32 10 10 0 1 0 6.16-18.94h-.07a10 10 0 0 0 .87-3 10 10 0 0 0-15.95-9.19 10 10 0 0 0-2.74 3.25 9.71 9.71 0 0 0-1.06 3.36 10 10 0 0 0 .36 4.26 10.05 10.05 0 0 0-5.07 4.58 9.78 9.78 0 0 0-1 2.86 10 10 0 0 0 8.03 11.59zm.58-22.91a7 7 0 1 1 13.95 1.82 7.08 7.08 0 0 1-1.05 2.89 7.64 7.64 0 0 1-1.13 1.35l-.28.24-.23.18a1.5 1.5 0 0 0-.56 1 1.71 1.71 0 0 0 0 .55 1.54 1.54 0 0 0 .26.53 1.48 1.48 0 0 0 2.06.27 10.76 10.76 0 0 0 1.17-1.06 7.79 7.79 0 0 1 .83.22 7.06 7.06 0 0 1 4.52 8.87 7 7 0 0 1-11.27 3.15 10 10 0 0 0 2.62-5.11 1.46 1.46 0 0 0-1.18-1.7 1.44 1.44 0 0 0-1.7 1.18 7 7 0 0 1-1.57 3.28 6.21 6.21 0 0 1-1.08 1 6.36 6.36 0 0 1-1.25.77 6.94 6.94 0 0 1-4.29.57 7 7 0 0 1-1.19-13.5 4.84 4.84 0 0 0 .33.46 1.46 1.46 0 0 0 2.61-.7.61.61 0 0 0 0-.19 1.43 1.43 0 0 0-.3-.89c-.14-.19-.28-.39-.41-.59a7.11 7.11 0 0 1-1-4.61z" transform="translate(-188.2 -132.89)"/><g class="cls-6"><ellipse class="cls-7" cx="396.16" cy="169.86" rx="2.11" ry="3.3" transform="rotate(-2.2 -3158.777 5004.238)"/></g><path class="cls-3" d="M390.75 153.18h.05-.07z" transform="translate(-188.2 -132.89)"/><path class="cls-1" d="M390.75 153.18h.05-.07z" transform="translate(-188.2 -132.89)"/><path class="cls-3" d="M370.81 157.27a7 7 0 0 1 4.46-5.32l.33.46a1.46 1.46 0 0 0 2.06.27 1.43 1.43 0 0 0 .55-1 1.23 1.23 0 0 0 0-.19 1.49 1.49 0 0 0-.3-.89c-.15-.19-.28-.39-.41-.59a6.46 6.46 0 0 1-.68-1.43 7 7 0 0 1-.32-3.18 7 7 0 0 1 2.69-4.66 7 7 0 0 1 9.08 10.72l-.28.25-.22.17a1.42 1.42 0 0 0-.56 1 1.29 1.29 0 0 0 0 .55 1.25 1.25 0 0 0 .26.53 1.46 1.46 0 0 0 2.05.27 10.86 10.86 0 0 0 1.18-1.06h.08a8.67 8.67 0 0 1 .84.22 7 7 0 0 1-4.35 13.38 7.14 7.14 0 0 1-2.41-1.35 9.91 9.91 0 0 0 2.62-5.11 1.47 1.47 0 0 0-1.18-1.71 1.44 1.44 0 0 0-1.7 1.18 6.92 6.92 0 0 1-1.56 3.28 6.25 6.25 0 0 1-1.09 1 6.36 6.36 0 0 1-1.25.77 6.91 6.91 0 0 1-4.28.57 7 7 0 0 1-5.61-8.13zM390.75 153.18h.05-.07z" transform="translate(-188.2 -132.89)"/><g class="cls-4"><path class="cls-5" d="M384.11 166.54s8.11 1 8.79-6.63a5.77 5.77 0 0 0-5.09-6.66s3.85-8.57-4.5-10.32c-6.93-1.46-7 8.24-7 8.24l-1.14-7.89 4.83-5.4a59.1 59.1 0 0 1 6.28.66c.52.27 5.67 4.31 5.67 4.31l-.11 5.24-1.12 3.39 3.9 1.39 3.57 4.54s-.9 5.48-1.18 6-3.49 4.12-3.49 4.12l-4.48.95z" transform="translate(-188.2 -132.89)"/></g><path class="cls-1" d="M375.94 168.34a9.91 9.91 0 0 0 6.61-1.09 10 10 0 1 0 10-16.62h-.07a9.78 9.78 0 0 0 .88-3 10 10 0 0 0-18.7-5.94 10.16 10.16 0 0 0-1.06 3.36 9.86 9.86 0 0 0 .37 4.26 10 10 0 0 0 1.95 19zm.58-22.91a7 7 0 0 1 2.69-4.66 7 7 0 0 1 9.08 10.72l-.28.25-.22.17a1.42 1.42 0 0 0-.56 1 1.29 1.29 0 0 0 0 .55 1.25 1.25 0 0 0 .26.53 1.46 1.46 0 0 0 2.05.27 10.86 10.86 0 0 0 1.18-1.06h.05a8.67 8.67 0 0 1 .84.22 7 7 0 0 1-4.35 13.38 7.14 7.14 0 0 1-2.41-1.35 9.91 9.91 0 0 0 2.62-5.11 1.47 1.47 0 0 0-1.18-1.71 1.44 1.44 0 0 0-1.7 1.18 6.92 6.92 0 0 1-1.56 3.28 6.25 6.25 0 0 1-1.09 1 6.36 6.36 0 0 1-1.25.77 6.91 6.91 0 0 1-4.28.57 7 7 0 0 1-1.2-13.5l.33.46a1.46 1.46 0 0 0 2.06.27 1.43 1.43 0 0 0 .55-1 1.23 1.23 0 0 0 0-.19 1.49 1.49 0 0 0-.3-.89c-.15-.19-.28-.39-.41-.59a6.46 6.46 0 0 1-.68-1.43 7 7 0 0 1-.24-3.13z" transform="translate(-188.2 -132.89)"/><g class="cls-6"><ellipse class="cls-7" cx="377.46" cy="159.17" rx="2.11" ry="3.3" transform="rotate(-2.2 -3177.326 4993.461)"/></g><path class="cls-3" d="M426.58 173.79z" transform="translate(-188.2 -132.89)"/><path class="cls-1" d="M426.58 173.79z" transform="translate(-188.2 -132.89)"/><path class="cls-3" d="M406.27 172.41a7 7 0 0 1 5.72-3.93c.06.18.12.36.19.53a1.46 1.46 0 0 0 2.71 0 .64.64 0 0 0 .06-.18 1.39 1.39 0 0 0-.05-.94 8.97 8.97 0 0 1-.24-.67 7.09 7.09 0 0 1-.27-1.56 7 7 0 0 1 13.54-3.06 7 7 0 0 1-3.27 8.89l-.33.16-.27.11a1.47 1.47 0 0 0-.8.79 1.63 1.63 0 0 0-.12.54 1.7 1.7 0 0 0 .11.58 1.47 1.47 0 0 0 1.91.81 10.45 10.45 0 0 0 1.42-.71h.07a6.93 6.93 0 0 1 .75.43 7 7 0 0 1 3 4.47 7 7 0 0 1-10.76 7.33 6.87 6.87 0 0 1-2-2 9.89 9.89 0 0 0 3.89-4.22 1.47 1.47 0 0 0-.69-2 1.45 1.45 0 0 0-1.95.68 6.84 6.84 0 0 1-2.38 2.74 6 6 0 0 1-1.32.71 6.18 6.18 0 0 1-1.41.41 7 7 0 0 1-4.28-.59 7 7 0 0 1-3.23-9.32zM426.58 173.79z" transform="translate(-188.2 -132.89)"/><g class="cls-4"><path class="cls-5" d="M416.61 184.89s7.56 3.09 10.25-4a5.78 5.78 0 0 0-3.14-7.79s6-7.22-1.57-11.14c-6.29-3.25-8.94 6.07-8.94 6.07l1-7.91 6.1-3.91a61.55 61.55 0 0 1 5.87 2.31c.43.4 4.31 5.68 4.31 5.68l-1.5 5-2 3 3.39 2.38 2.23 5.33s-2.34 5-2.74 5.47-4.47 3-4.47 3l-4.57-.28z" transform="translate(-188.2 -132.89)"/></g><path class="cls-1" d="M408.26 184.45a9.92 9.92 0 0 0 6.66.71A10 10 0 1 0 429 171.82h-.06a10 10 0 0 0-3.66-15.69 10 10 0 0 0-7.62-.06 9.8 9.8 0 0 0-3.51 2.4 9.92 9.92 0 0 0-2.71 7.15 10 10 0 0 0-3.2 18.87zm6.68-21.92a7 7 0 0 1 13 .09 7 7 0 0 1-3.27 8.89l-.33.16-.27.11a1.47 1.47 0 0 0-.8.79 1.63 1.63 0 0 0-.12.54 1.7 1.7 0 0 0 .11.58 1.47 1.47 0 0 0 1.91.81 10.45 10.45 0 0 0 1.42-.71 6.93 6.93 0 0 1 .75.43 7 7 0 0 1 3 4.47 7 7 0 0 1-10.7 7.31 6.87 6.87 0 0 1-2-2 9.89 9.89 0 0 0 3.89-4.22 1.47 1.47 0 0 0-.69-2 1.45 1.45 0 0 0-1.95.68 6.84 6.84 0 0 1-2.38 2.74 6 6 0 0 1-1.32.71 6.18 6.18 0 0 1-1.41.41 7 7 0 0 1-4.28-.59 7 7 0 0 1 2.5-13.25c.06.18.12.36.19.53a1.46 1.46 0 0 0 2.71 0 .64.64 0 0 0 .06-.18 1.39 1.39 0 0 0-.05-.94 8.97 8.97 0 0 1-.24-.67 7.09 7.09 0 0 1-.27-1.56 7 7 0 0 1 .54-3.13z" transform="translate(-188.2 -132.89)"/><g class="cls-6"><ellipse class="cls-7" cx="412.17" cy="176.02" rx="3.3" ry="2.11" transform="rotate(-76.71 234.094 228.49)"/></g><path class="cls-3" d="M438.94 211.09h.05a.25.25 0 0 0-.05 0z" transform="translate(-188.2 -132.89)"/><path class="cls-1" d="M438.94 211.09h.05a.25.25 0 0 0-.05 0z" transform="translate(-188.2 -132.89)"/><path class="cls-3" d="M436.29 231.27a7 7 0 0 1-3.57-6 5.52 5.52 0 0 0 .54-.16 1.46 1.46 0 0 0 .93-1.85 1.41 1.41 0 0 0-.74-.84l-.17-.08a1.44 1.44 0 0 0-.94 0l-.69.19a7 7 0 1 1 4-11.22 6.82 6.82 0 0 1 .91 1.51c0 .12.1.23.14.34s.07.18.1.28a1.47 1.47 0 0 0 .73.85 1.61 1.61 0 0 0 .53.15 1.53 1.53 0 0 0 .59-.08 1.48 1.48 0 0 0 .93-1.85 10.49 10.49 0 0 0-.62-1.46.25.25 0 0 1 0-.07 5.63 5.63 0 0 1 .48-.72 7 7 0 0 1 11.22 8.49 7.09 7.09 0 0 1-2.07 1.83 9.84 9.84 0 0 0-4-4.15 1.47 1.47 0 0 0-2 .56 1.54 1.54 0 0 0-.14 1.11 1.52 1.52 0 0 0 .7.88 6.9 6.9 0 0 1 2.59 2.55 6.15 6.15 0 0 1 .61 1.36 5.83 5.83 0 0 1 .33 1.43 7 7 0 0 1-10.44 6.91z" transform="translate(-188.2 -132.89)"/><path class="cls-3" d="M438.94 211.09h.05a.25.25 0 0 0-.05 0z" transform="translate(-188.2 -132.89)"/><g class="cls-4"><path class="cls-5" d="M449.39 221.73s3.56-7.34-3.38-10.47a5.78 5.78 0 0 0-8 2.63s-6.83-6.44-11.22.88c-3.64 6.07 5.5 9.3 5.5 9.3l-7.83-1.5-3.46-6.34a62.54 62.54 0 0 1 2.67-5.71c.43-.4 5.94-4 5.94-4l4.91 1.82 2.83 2.16 2.6-3.23 5.45-1.89s4.89 2.65 5.29 3.08 2.75 4.65 2.75 4.65l-.57 4.54z" transform="translate(-188.2 -132.89)"/></g><path class="cls-1" d="M448.42 230a10 10 0 0 0 1.14-6.6 10 10 0 1 0-12.43-14.91l-.05.06a10.13 10.13 0 0 0-2.52-1.8 10 10 0 0 0-11.74 15.72 10 10 0 0 0 7 3.16 10 10 0 0 0 18.6 4.37zM427 222a7 7 0 0 1 6.28-12.59 7 7 0 0 1 2.38 1.94 6.82 6.82 0 0 1 .91 1.51c0 .12.1.23.14.34s.07.18.1.28a1.47 1.47 0 0 0 .73.85 1.61 1.61 0 0 0 .53.15 1.53 1.53 0 0 0 .59-.08 1.48 1.48 0 0 0 .93-1.85 10.49 10.49 0 0 0-.62-1.46h.05a5.63 5.63 0 0 1 .48-.72 7 7 0 0 1 11.22 8.49 7.09 7.09 0 0 1-2.07 1.83 9.84 9.84 0 0 0-4-4.15 1.47 1.47 0 0 0-2 .56 1.54 1.54 0 0 0-.14 1.11 1.52 1.52 0 0 0 .7.88 6.9 6.9 0 0 1 2.59 2.55 6.15 6.15 0 0 1 .61 1.36 5.83 5.83 0 0 1 .33 1.43 7 7 0 1 1-14 .95 5.52 5.52 0 0 0 .54-.16 1.46 1.46 0 0 0 .93-1.85 1.41 1.41 0 0 0-.74-.84l-.17-.08a1.44 1.44 0 0 0-.94 0l-.69.19A7 7 0 0 1 427 222z" transform="translate(-188.2 -132.89)"/><g class="cls-6"><ellipse class="cls-7" cx="440.25" cy="225.61" rx="2.11" ry="3.3" transform="rotate(-73.11 256.515 286.089)"/></g><path class="cls-3" d="M428.25 180.36z" transform="translate(-188.2 -132.89)"/><path class="cls-1" d="M428.25 180.36z" transform="translate(-188.2 -132.89)"/><path class="cls-3" d="M425.6 200.54a7 7 0 0 1-3.57-6l.54-.16a1.46 1.46 0 0 0 .93-1.85 1.41 1.41 0 0 0-.74-.84.53.53 0 0 0-.17-.08 1.51 1.51 0 0 0-.94 0c-.23.08-.46.14-.69.2a7 7 0 1 1 4-11.22 6.6 6.6 0 0 1 .91 1.51 3.45 3.45 0 0 1 .14.34l.1.27a1.39 1.39 0 0 0 .74.85 1.56 1.56 0 0 0 .52.15 1.32 1.32 0 0 0 .59-.07 1.47 1.47 0 0 0 .93-1.85 10 10 0 0 0-.62-1.46.25.25 0 0 1 0-.07 7 7 0 1 1 11.7 7.76 6.82 6.82 0 0 1-2.07 1.83 9.87 9.87 0 0 0-4-4.14 1.46 1.46 0 1 0-1.44 2.55 6.9 6.9 0 0 1 2.59 2.55 6 6 0 0 1 .62 1.36 6.31 6.31 0 0 1 .32 1.43 7 7 0 0 1-10.44 6.91zM428.25 180.36z" transform="translate(-188.2 -132.89)"/><g class="cls-4"><path class="cls-5" d="M438.7 191s3.56-7.34-3.38-10.48a5.79 5.79 0 0 0-8 2.64s-6.83-6.44-11.22.88c-3.64 6.07 5.5 9.3 5.5 9.3l-7.83-1.5-3.52-6.34s2.25-5.31 2.67-5.72 5.94-3.94 5.94-3.94l4.91 1.82 2.83 2.16 2.6-3.23 5.45-1.89s4.89 2.65 5.29 3.08 2.75 4.65 2.75 4.65l-.57 4.54z" transform="translate(-188.2 -132.89)"/></g><path class="cls-1" d="M437.73 199.31a9.9 9.9 0 0 0 1.14-6.6 10 10 0 1 0-12.43-14.91l-.05.06a10.13 10.13 0 0 0-2.52-1.8 10 10 0 0 0-11.73 15.72 9.75 9.75 0 0 0 2.82 2.1 9.88 9.88 0 0 0 4.15 1.05 9.93 9.93 0 0 0 2.68 6.29 9.51 9.51 0 0 0 2.37 1.87 10 10 0 0 0 13.57-3.78zm-21.45-8a7 7 0 1 1 6.28-12.59 7 7 0 0 1 2.38 1.94 6.6 6.6 0 0 1 .91 1.51 3.45 3.45 0 0 1 .14.34l.1.27a1.39 1.39 0 0 0 .74.85 1.56 1.56 0 0 0 .52.15 1.32 1.32 0 0 0 .59-.07 1.47 1.47 0 0 0 .93-1.85 10 10 0 0 0-.62-1.46 7 7 0 1 1 11.7 7.76 6.82 6.82 0 0 1-2.07 1.83 9.87 9.87 0 0 0-4-4.14 1.46 1.46 0 1 0-1.44 2.55 6.9 6.9 0 0 1 2.59 2.55 6 6 0 0 1 .62 1.36 6.31 6.31 0 0 1 .32 1.43 7 7 0 1 1-14 1l.54-.16a1.46 1.46 0 0 0 .93-1.85 1.41 1.41 0 0 0-.74-.84.53.53 0 0 0-.17-.08 1.51 1.51 0 0 0-.94 0c-.23.08-.46.14-.69.2a7 7 0 0 1-4.68-.57z" transform="translate(-188.2 -132.89)"/><g class="cls-6"><ellipse class="cls-7" cx="429.56" cy="194.88" rx="2.11" ry="3.3" transform="rotate(-73.11 245.825 255.36)"/></g><path class="cls-3" d="M414.88 188.38h.05z" transform="translate(-188.2 -132.89)"/><path class="cls-1" d="M414.88 188.38h.05z" transform="translate(-188.2 -132.89)"/><path class="cls-3" d="M412.24 208.56a7 7 0 0 1-3.57-6l.54-.16a1.46 1.46 0 0 0 .19-2.7l-.17-.07a1.47 1.47 0 0 0-1 0 5.27 5.27 0 0 1-.68.19 7 7 0 1 1 1.59-13.15 6.87 6.87 0 0 1 2.39 1.94 6.6 6.6 0 0 1 .91 1.51c.05.11.09.22.14.34l.09.27a1.43 1.43 0 0 0 .74.85 1.61 1.61 0 0 0 .53.15 1.52 1.52 0 0 0 .59-.07 1.47 1.47 0 0 0 .92-1.85 9 9 0 0 0-.62-1.46l.05-.08a6.43 6.43 0 0 1 .48-.72 7 7 0 1 1 9.15 10.32 9.9 9.9 0 0 0-4-4.15 1.47 1.47 0 0 0-2 .56 1.55 1.55 0 0 0-.14 1.11 1.49 1.49 0 0 0 .7.88 7 7 0 0 1 2.59 2.55 6.23 6.23 0 0 1 .61 1.37 5.72 5.72 0 0 1 .33 1.43 7 7 0 0 1-10.44 6.91zM414.88 188.38h.05z" transform="translate(-188.2 -132.89)"/><g class="cls-4"><path class="cls-5" d="M425.34 199s3.56-7.35-3.38-10.48a5.79 5.79 0 0 0-8 2.64s-6.83-6.44-11.22.87c-3.64 6.08 5.5 9.31 5.5 9.31l-7.83-1.51-3.52-6.33a62.61 62.61 0 0 1 2.67-5.72c.43-.4 5.94-4 5.94-4l4.91 1.82 2.83 2.17 2.6-3.23 5.45-1.89s4.89 2.65 5.29 3.07 2.75 4.65 2.75 4.65l-.57 4.55z" transform="translate(-188.2 -132.89)"/></g><path class="cls-1" d="M424.37 207.33a9.89 9.89 0 0 0 1.13-6.6 10 10 0 1 0-12.43-14.91v.05a10 10 0 0 0-14.26 13.93 10.18 10.18 0 0 0 2.83 2.1 9.88 9.88 0 0 0 4.15 1 10 10 0 0 0 18.62 4.38zm-21.45-8.05a7 7 0 0 1-3.16-9.43 7 7 0 0 1 4.07-3.53 7.05 7.05 0 0 1 7.75 2.32 6.6 6.6 0 0 1 .91 1.51c.05.11.09.22.14.34l.09.27a1.43 1.43 0 0 0 .74.85 1.61 1.61 0 0 0 .53.15 1.52 1.52 0 0 0 .59-.07 1.47 1.47 0 0 0 .92-1.85 9 9 0 0 0-.62-1.46h.05a6.43 6.43 0 0 1 .48-.72 7 7 0 1 1 9.15 10.32 9.9 9.9 0 0 0-4-4.15 1.47 1.47 0 0 0-2 .56 1.55 1.55 0 0 0-.14 1.11 1.49 1.49 0 0 0 .7.88 7 7 0 0 1 2.59 2.55 6.23 6.23 0 0 1 .61 1.37 5.72 5.72 0 0 1 .33 1.43 7 7 0 1 1-14 .95l.54-.16a1.46 1.46 0 0 0 .19-2.7l-.17-.07a1.47 1.47 0 0 0-1 0 5.27 5.27 0 0 1-.68.19 6.86 6.86 0 0 1-4.68-.57z" transform="translate(-188.2 -132.89)"/><g class="cls-6"><ellipse class="cls-7" cx="416.2" cy="202.9" rx="2.11" ry="3.3" transform="rotate(-73.11 232.462 263.375)"/></g><path class="cls-3" d="M434.93 197.73z" transform="translate(-188.2 -132.89)"/><path class="cls-1" d="M434.93 197.73z" transform="translate(-188.2 -132.89)"/><path class="cls-3" d="M432.28 217.91a7 7 0 0 1-3.57-6 5.52 5.52 0 0 0 .54-.16 1.45 1.45 0 0 0 .93-1.85 1.41 1.41 0 0 0-.74-.84l-.17-.08a1.51 1.51 0 0 0-.94 0c-.23.08-.46.14-.69.2a7 7 0 1 1 4-11.22 6.6 6.6 0 0 1 .91 1.51 3.45 3.45 0 0 1 .14.34l.1.27a1.43 1.43 0 0 0 .74.85 1.56 1.56 0 0 0 .52.15 1.32 1.32 0 0 0 .59-.07 1.47 1.47 0 0 0 .93-1.85 10.49 10.49 0 0 0-.62-1.46.25.25 0 0 1 0-.07 7 7 0 1 1 11.7 7.76 6.82 6.82 0 0 1-2.07 1.83 9.87 9.87 0 0 0-4-4.14 1.46 1.46 0 1 0-1.44 2.55 6.9 6.9 0 0 1 2.59 2.55 6 6 0 0 1 .62 1.36 6.31 6.31 0 0 1 .32 1.43 7 7 0 0 1-10.44 6.91zM434.93 197.73z" transform="translate(-188.2 -132.89)"/><g class="cls-4"><path class="cls-5" d="M445.38 208.37s3.56-7.34-3.38-10.48a5.79 5.79 0 0 0-8 2.64s-6.83-6.44-11.22.88c-3.64 6.07 5.5 9.3 5.5 9.3l-7.83-1.5-3.45-6.34a60.26 60.26 0 0 1 2.68-5.71c.42-.41 5.93-3.95 5.93-3.95l4.92 1.82 2.83 2.16 2.59-3.23 5.45-1.89s4.89 2.65 5.29 3.08 2.75 4.65 2.75 4.65l-.57 4.54z" transform="translate(-188.2 -132.89)"/></g><path class="cls-1" d="M444.41 216.68a9.9 9.9 0 0 0 1.14-6.6 10 10 0 1 0-12.43-14.91l-.05.06a10.13 10.13 0 0 0-2.52-1.8 10 10 0 0 0-8.91 17.83 10 10 0 0 0 4.15 1 10 10 0 0 0 2.68 6.29 9.51 9.51 0 0 0 2.37 1.87 10 10 0 0 0 13.57-3.74zm-21.45-8a7 7 0 1 1 6.28-12.59 7 7 0 0 1 2.38 1.94 6.6 6.6 0 0 1 .91 1.51 3.45 3.45 0 0 1 .14.34l.1.27a1.43 1.43 0 0 0 .74.85 1.56 1.56 0 0 0 .52.15 1.32 1.32 0 0 0 .59-.07 1.47 1.47 0 0 0 .93-1.85 10.49 10.49 0 0 0-.62-1.46 7 7 0 1 1 11.7 7.76 6.82 6.82 0 0 1-2.07 1.83 9.87 9.87 0 0 0-4-4.14 1.46 1.46 0 1 0-1.44 2.55 6.9 6.9 0 0 1 2.59 2.55 6 6 0 0 1 .62 1.36 6.31 6.31 0 0 1 .32 1.43 7 7 0 1 1-14 .95 5.52 5.52 0 0 0 .54-.16 1.45 1.45 0 0 0 .93-1.85 1.41 1.41 0 0 0-.74-.84l-.17-.08a1.51 1.51 0 0 0-.94 0c-.23.08-.46.14-.69.2a7 7 0 0 1-4.68-.57z" transform="translate(-188.2 -132.89)"/><g class="cls-6"><ellipse class="cls-7" cx="436.25" cy="212.25" rx="2.11" ry="3.3" transform="rotate(-73.11 252.502 272.726)"/></g><path class="cls-3" d="M370.74 174.24z" transform="translate(-188.2 -132.89)"/><path class="cls-1" d="M370.74 174.24z" transform="translate(-188.2 -132.89)"/><path class="cls-3" d="M352.21 165.84a7 7 0 0 1 6.73-1.68v.56a1.46 1.46 0 0 0 1.5 1.43 1.43 1.43 0 0 0 1-.46.75.75 0 0 0 .12-.14 1.52 1.52 0 0 0 .29-.91v-.71a7.31 7.31 0 0 1 .29-1.55 6.91 6.91 0 0 1 1.62-2.76 7 7 0 1 1 7.69 11.38 6.91 6.91 0 0 1-1.71.42H369.09a1.48 1.48 0 0 0-1 .46 2 2 0 0 0-.3.46 1.63 1.63 0 0 0-.1.59 1.47 1.47 0 0 0 1.5 1.42 9.1 9.1 0 0 0 1.58-.17l.06.07c.19.21.38.43.55.66a7 7 0 0 1-11.38 8.33 7.14 7.14 0 0 1-1.15-2.51 9.94 9.94 0 0 0 5.13-2.59 1.48 1.48 0 0 0 0-2.08 1.45 1.45 0 0 0-1-.45 1.49 1.49 0 0 0-1 .41 6.82 6.82 0 0 1-3.19 1.73 5.67 5.67 0 0 1-1.48.19 5.5 5.5 0 0 1-1.46-.11 6.93 6.93 0 0 1-3.81-2.05 7 7 0 0 1 .17-9.94zM370.74 174.24z" transform="translate(-188.2 -132.89)"/><g class="cls-4"><path class="cls-5" d="M357.52 181.15s6 5.54 11-.19a5.79 5.79 0 0 0-.21-8.39s8.15-4.66 2.43-11c-4.75-5.25-10.5 2.55-10.5 2.55l3.71-7 7.09-1.52a60.07 60.07 0 0 1 4.69 4.22c.26.53 2.05 6.83 2.05 6.83l-3.17 4.17-2.9 2.08 2.34 3.42.22 5.77s-3.95 3.9-4.48 4.16-5.25 1.28-5.25 1.28l-4.18-1.87z" transform="translate(-188.2 -132.89)"/></g><path class="cls-1" d="M349.85 177.8a10 10 0 0 0 6 3 10 10 0 0 0 8.26 8.14 10 10 0 0 0 9.63-15.69l-.05-.06a10 10 0 0 0-9.17-17.69 10 10 0 0 0-5 5.75 10 10 0 0 0-9.61 16.54zm13.94-18.18a7 7 0 1 1 7.66 11.38 6.91 6.91 0 0 1-1.71.42H369.09a1.48 1.48 0 0 0-1 .46 2 2 0 0 0-.3.46 1.63 1.63 0 0 0-.1.59 1.47 1.47 0 0 0 1.5 1.42 9.1 9.1 0 0 0 1.58-.17c.19.21.38.43.55.66a7 7 0 0 1-11.32 8.4 7.14 7.14 0 0 1-1.15-2.51 9.94 9.94 0 0 0 5.13-2.59 1.48 1.48 0 0 0 0-2.08 1.45 1.45 0 0 0-1-.45 1.49 1.49 0 0 0-1 .41 6.82 6.82 0 0 1-3.19 1.73 5.67 5.67 0 0 1-1.48.19 5.5 5.5 0 0 1-1.46-.11 6.93 6.93 0 0 1-3.81-2.05 7 7 0 0 1 7-11.62v.56a1.46 1.46 0 0 0 1.5 1.43 1.43 1.43 0 0 0 1-.46.75.75 0 0 0 .12-.14 1.52 1.52 0 0 0 .29-.91v-.71a7.31 7.31 0 0 1 .29-1.55 6.91 6.91 0 0 1 1.55-2.76z" transform="translate(-188.2 -132.89)"/><g class="cls-6"><ellipse class="cls-7" cx="356.47" cy="171.28" rx="3.3" ry="2.11" transform="rotate(-56.19 137.89 281.112)"/></g><path class="cls-3" d="M465.48 214.69z" transform="translate(-188.2 -132.89)"/><path class="cls-1" d="M465.48 214.69z" transform="translate(-188.2 -132.89)"/><path class="cls-3" d="M448.45 225.83a7 7 0 0 1 2.19-6.59c.15.11.31.21.47.31a1.47 1.47 0 0 0 2-.51 1.41 1.41 0 0 0 .15-1.11.84.84 0 0 0 0-.17 1.42 1.42 0 0 0-.61-.72c-.2-.13-.4-.26-.59-.4a7 7 0 0 1-1.16-1.08 7 7 0 1 1 12.26-3.21 6.78 6.78 0 0 1-.56 1.68l-.16.33-.15.24a1.48 1.48 0 0 0-.16 1.12 1.73 1.73 0 0 0 .23.5 1.55 1.55 0 0 0 .44.4 1.48 1.48 0 0 0 2-.51 11 11 0 0 0 .7-1.42h.08a5.06 5.06 0 0 1 .86-.11 7 7 0 1 1-1.86 13.67 9.89 9.89 0 0 0 .56-5.72 1.47 1.47 0 0 0-2.66-.53 1.49 1.49 0 0 0-.21 1.1 7 7 0 0 1-.25 3.62 6 6 0 0 1-.63 1.36 6.25 6.25 0 0 1-.88 1.18 7 7 0 0 1-12-3.42zM465.48 214.69z" transform="translate(-188.2 -132.89)"/><g class="cls-4"><path class="cls-5" d="M464.22 229.55s7.89-2.08 5.74-9.39a5.77 5.77 0 0 0-7.19-4.32s.44-9.39-8-7.94c-7 1.19-3.48 10.23-3.48 10.23l-4-6.92 2.51-6.8a59.38 59.38 0 0 1 6.08-1.69c.58.06 6.86 1.92 6.86 1.92l1.83 4.92.2 3.56L469 213l5 2.9s1.17 5.43 1.11 6-1.74 5.11-1.74 5.11l-3.81 2.53z" transform="translate(-188.2 -132.89)"/></g><path class="cls-1" d="M457.29 234.23a9.87 9.87 0 0 0 5.74-3.44 10 10 0 1 0 3.21-19.14h-.07a10.06 10.06 0 0 0-.28-3.08 10 10 0 0 0-19.57 1.34 9.76 9.76 0 0 0 .25 3.52 9.92 9.92 0 0 0 1.9 3.83 10 10 0 0 0-3 6.13 10.21 10.21 0 0 0 .13 3 10 10 0 0 0 11.69 7.84zm-7.88-21.51a7 7 0 0 1 13.64-3.44 6.93 6.93 0 0 1 .08 3.07 6.78 6.78 0 0 1-.56 1.68l-.16.33-.15.24a1.48 1.48 0 0 0-.16 1.12 1.73 1.73 0 0 0 .23.5 1.55 1.55 0 0 0 .44.4 1.48 1.48 0 0 0 2-.51 11 11 0 0 0 .7-1.42h.07a5.06 5.06 0 0 1 .86-.11 7 7 0 1 1-1.86 13.67 9.89 9.89 0 0 0 .56-5.72 1.47 1.47 0 0 0-2.66-.53 1.49 1.49 0 0 0-.21 1.1 7 7 0 0 1-.25 3.62 6 6 0 0 1-.63 1.36 6.25 6.25 0 0 1-.88 1.18 7 7 0 1 1-9.85-10c.15.11.31.21.47.31a1.47 1.47 0 0 0 2-.51 1.41 1.41 0 0 0 .15-1.11.84.84 0 0 0 0-.17 1.42 1.42 0 0 0-.61-.72c-.2-.13-.4-.26-.59-.4a7 7 0 0 1-1.16-1.08 6.94 6.94 0 0 1-1.47-2.86z" transform="translate(-188.2 -132.89)"/><g class="cls-6"><ellipse class="cls-7" cx="455.33" cy="225.15" rx="2.11" ry="3.3" transform="rotate(-23.77 45.591 605.85)"/></g><path class="cls-3" d="M448.29 188.38h.05a.3.3 0 0 1-.05 0z" transform="translate(-188.2 -132.89)"/><path class="cls-1" d="M448.29 188.38h.05a.3.3 0 0 1-.05 0z" transform="translate(-188.2 -132.89)"/><path class="cls-3" d="M445.64 208.56a7 7 0 0 1-3.57-6l.54-.16a1.46 1.46 0 0 0 .19-2.7l-.17-.07a1.44 1.44 0 0 0-.94 0 5.91 5.91 0 0 1-.69.19 7 7 0 1 1 4-11.21 6.6 6.6 0 0 1 .91 1.51 3.45 3.45 0 0 1 .14.34l.1.27a1.43 1.43 0 0 0 .74.85 1.56 1.56 0 0 0 .52.15 1.47 1.47 0 0 0 1.52-1.92 10 10 0 0 0-.62-1.46.3.3 0 0 0 0-.08c.15-.24.31-.49.48-.72A7 7 0 1 1 458 197.9a10 10 0 0 0-4-4.15 1.47 1.47 0 0 0-2.13 1.67 1.44 1.44 0 0 0 .69.88 6.9 6.9 0 0 1 2.59 2.55 6.26 6.26 0 0 1 .62 1.37 6.19 6.19 0 0 1 .32 1.43 7 7 0 0 1-.86 4.24 7 7 0 0 1-9.59 2.67z" transform="translate(-188.2 -132.89)"/><path class="cls-3" d="M448.29 188.38h.05a.3.3 0 0 1-.05 0z" transform="translate(-188.2 -132.89)"/><g class="cls-4"><path class="cls-5" d="M458.75 199s3.55-7.35-3.39-10.48a5.77 5.77 0 0 0-8 2.64s-6.84-6.44-11.23.87c-3.64 6.08 5.5 9.31 5.5 9.31l-7.83-1.51-3.52-6.33a60.33 60.33 0 0 1 2.72-5.7c.43-.4 5.93-4 5.93-4l4.92 1.82 2.83 2.17 2.59-3.23 5.45-1.89s4.89 2.65 5.29 3.07 2.75 4.65 2.75 4.65l-.56 4.61z" transform="translate(-188.2 -132.89)"/></g><path class="cls-1" d="M457.77 207.33a9.9 9.9 0 0 0 1.14-6.6 10.11 10.11 0 0 0 3.46-2.89 10 10 0 1 0-15.89-12v.05a10.08 10.08 0 0 0-2.53-1.79 10 10 0 0 0-11.73 15.72 10 10 0 0 0 2.83 2.1 9.8 9.8 0 0 0 4.14 1 10 10 0 0 0 18.62 4.38zm-21.45-8.05a7 7 0 1 1 6.28-12.58 6.93 6.93 0 0 1 2.38 1.94 6.6 6.6 0 0 1 .91 1.51 3.45 3.45 0 0 1 .14.34l.1.27a1.43 1.43 0 0 0 .74.85 1.56 1.56 0 0 0 .52.15 1.47 1.47 0 0 0 1.52-1.92 10 10 0 0 0-.62-1.46h.05c.15-.24.31-.49.48-.72A7 7 0 1 1 458 197.9a10 10 0 0 0-4-4.15 1.47 1.47 0 0 0-2.13 1.67 1.44 1.44 0 0 0 .69.88 6.9 6.9 0 0 1 2.59 2.55 6.26 6.26 0 0 1 .62 1.37 6.19 6.19 0 0 1 .32 1.43 7 7 0 0 1-.86 4.24 7 7 0 0 1-13.15-3.29l.54-.16a1.46 1.46 0 0 0 .19-2.7l-.17-.07a1.44 1.44 0 0 0-.94 0 5.91 5.91 0 0 1-.69.19 6.86 6.86 0 0 1-4.68-.57z" transform="translate(-188.2 -132.89)"/><g class="cls-6"><ellipse class="cls-7" cx="449.61" cy="202.9" rx="2.11" ry="3.3" transform="rotate(-73.11 265.865 263.372)"/></g><path class="cls-3" d="M318.75 167.5h.05z" transform="translate(-188.2 -132.89)"/><path class="cls-1" d="M318.75 167.5h.05z" transform="translate(-188.2 -132.89)"/><path class="cls-3" d="M314.82 187.46a7 7 0 0 1-3.18-6.17 4.88 4.88 0 0 0 .55-.12 1.47 1.47 0 0 0 1.05-1.79 1.43 1.43 0 0 0-.69-.89.83.83 0 0 0-.16-.09 1.44 1.44 0 0 0-.94-.06 5.78 5.78 0 0 1-.7.14 7 7 0 1 1 4.69-10.93 7.21 7.21 0 0 1 .81 1.56l.12.35c0 .09.05.18.07.28a1.45 1.45 0 0 0 .69.89 1.57 1.57 0 0 0 .51.19 1.52 1.52 0 0 0 .6 0 1.47 1.47 0 0 0 1-1.79 11 11 0 0 0-.53-1.49l.05-.07a5.76 5.76 0 0 1 .53-.69 7 7 0 1 1 8.47 10.88 9.81 9.81 0 0 0-3.7-4.4 1.46 1.46 0 0 0-2 .44 1.49 1.49 0 0 0-.22 1.1 1.52 1.52 0 0 0 .64.92 6.9 6.9 0 0 1 2.42 2.71 7.26 7.26 0 0 1 .76 2.85 7 7 0 0 1-10.86 6.22zM318.75 167.5h.05z" transform="translate(-188.2 -132.89)"/><g class="cls-4"><path class="cls-5" d="M328.51 178.78s4-7.1-2.71-10.67a5.78 5.78 0 0 0-8.12 2.13s-6.41-6.87-11.25.15c-4 5.83 4.89 9.64 4.89 9.64l-7.72-2-3.11-6.55a61.21 61.21 0 0 1 3-5.53c.45-.37 6.17-3.57 6.17-3.57l4.79 2.13 2.69 2.35 2.86-3.06 5.56-1.54s4.71 3 5.09 3.4 2.44 4.82 2.44 4.82l-.85 4.5z" transform="translate(-188.2 -132.89)"/></g><path class="cls-1" d="M327 187a9.88 9.88 0 0 0 1.55-6.51 10 10 0 1 0-11.45-15.67h-.05a10 10 0 0 0-15.11 13 10.17 10.17 0 0 0 2.68 2.28 9.89 9.89 0 0 0 4.07 1.31 10 10 0 0 0 2.28 6.45 9.85 9.85 0 0 0 2.24 2A10 10 0 0 0 327 187zm-20.9-9.39a7 7 0 0 1 1.74-12.88 7 7 0 0 1 7.59 2.81 7.21 7.21 0 0 1 .81 1.56l.12.35c0 .09.05.18.07.28a1.45 1.45 0 0 0 .69.89 1.57 1.57 0 0 0 .51.19 1.52 1.52 0 0 0 .6 0 1.47 1.47 0 0 0 1-1.79 11 11 0 0 0-.53-1.49h.05a5.76 5.76 0 0 1 .53-.69 7 7 0 1 1 8.47 10.88 9.81 9.81 0 0 0-3.7-4.4 1.46 1.46 0 0 0-2 .44 1.49 1.49 0 0 0-.22 1.1 1.52 1.52 0 0 0 .64.92 6.9 6.9 0 0 1 2.42 2.71 7.26 7.26 0 0 1 .76 2.85 7 7 0 1 1-14 0 4.88 4.88 0 0 0 .55-.12 1.47 1.47 0 0 0 1.05-1.79 1.43 1.43 0 0 0-.69-.89.83.83 0 0 0-.16-.09 1.44 1.44 0 0 0-.94-.06 5.78 5.78 0 0 1-.7.14 6.91 6.91 0 0 1-4.64-.86z" transform="translate(-188.2 -132.89)"/><g class="cls-6"><ellipse class="cls-7" cx="319.14" cy="182.07" rx="2.11" ry="3.3" transform="rotate(-69.46 129.17 251.38)"/></g><path class="cls-3" d="M294.25 181z" transform="translate(-188.2 -132.89)"/><path class="cls-1" d="M294.25 181z" transform="translate(-188.2 -132.89)"/><path class="cls-3" d="M300.4 202.15a7.61 7.61 0 0 1-6.12-4.34c.16-.13.32-.26.47-.4a1.57 1.57 0 0 0 .11-2.23 1.5 1.5 0 0 0-1.1-.51h-.19a1.57 1.57 0 0 0-.94.41c-.19.17-.39.33-.6.49a7.27 7.27 0 0 1-1.48.85 7.6 7.6 0 1 1-2.66-14.56 7.53 7.53 0 0 1 4.76 2l.29.28.21.23a1.61 1.61 0 0 0 1.1.52 2 2 0 0 0 .59-.08 1.65 1.65 0 0 0 .55-.33 1.6 1.6 0 0 0 .11-2.24 11.47 11.47 0 0 0-1.25-1.17.28.28 0 0 0 0-.09 9.3 9.3 0 0 1 .16-.92 7.6 7.6 0 1 1 13.59 6.19 10.71 10.71 0 0 0-5.73-2.37 1.59 1.59 0 0 0-1.39 2.58 1.64 1.64 0 0 0 1.07.57 7.46 7.46 0 0 1 3.67 1.39 6.52 6.52 0 0 1 1.2 1.08 6.59 6.59 0 0 1 .94 1.28 7.58 7.58 0 0 1-7.32 11.37zM294.25 181z" transform="translate(-188.2 -132.89)"/><g class="cls-4"><path class="cls-5" d="M309.22 187s.33-8.81-7.9-8.89a6.24 6.24 0 0 0-6.73 6.07s-9.56-3.4-10.72 5.74c-1 7.59 9.48 6.81 9.48 6.81l-8.4 1.92-6.23-4.74a65.23 65.23 0 0 1 .16-6.81c.25-.58 4.15-6.49 4.15-6.49l5.65-.33 3.74.91 1.17-4.32 4.57-4.25s6 .5 6.56.75 4.74 3.41 4.74 3.41l1.42 4.73z" transform="translate(-188.2 -132.89)"/></g><path class="cls-1" d="M311.87 195.66a10.69 10.69 0 0 0-1.75-7 10.76 10.76 0 1 0-18.77-9.34v.07a10.89 10.89 0 0 0-3.28-.68 10.77 10.77 0 0 0-8.5 18 10.79 10.79 0 0 0 12 2.76 10.76 10.76 0 0 0 5.38 5 11 11 0 0 0 3.16.82 10.78 10.78 0 0 0 11.76-9.63zM287.15 197a7.6 7.6 0 0 1 .74-15.18 7.53 7.53 0 0 1 4.76 2l.29.28.21.23a1.61 1.61 0 0 0 1.1.52 2 2 0 0 0 .59-.08 1.65 1.65 0 0 0 .55-.33 1.6 1.6 0 0 0 .11-2.24 11.47 11.47 0 0 0-1.25-1.17 9.3 9.3 0 0 1 .16-.92 7.6 7.6 0 1 1 13.59 6.14 10.71 10.71 0 0 0-5.73-2.37 1.59 1.59 0 0 0-1.39 2.58 1.64 1.64 0 0 0 1.07.57 7.46 7.46 0 0 1 3.67 1.39 6.52 6.52 0 0 1 1.2 1.08 6.59 6.59 0 0 1 .94 1.28 7.59 7.59 0 1 1-13.44 7c.16-.13.32-.26.47-.4a1.57 1.57 0 0 0 .11-2.23 1.5 1.5 0 0 0-1.1-.51h-.19a1.57 1.57 0 0 0-.94.41c-.19.17-.39.33-.6.49a7.27 7.27 0 0 1-1.48.85 7.54 7.54 0 0 1-3.44.61z" transform="translate(-188.2 -132.89)"/><g class="cls-6"><ellipse class="cls-7" cx="301.87" cy="194.83" rx="3.56" ry="2.28" transform="rotate(-6.83 -905.722 1705.313)"/></g><g class="cls-8"><path class="cls-5" d="M430.41 161a9.86 9.86 0 0 0-5.11-4.92 10 10 0 0 0-7.62-.06 9.8 9.8 0 0 0-3.51 2.4 9.91 9.91 0 0 0-1.93 2.95l-.09.27a9.14 9.14 0 0 0-.87-.33h-.07a10 10 0 0 0 .87-3 10 10 0 0 0-15.95-9.19 10.13 10.13 0 0 0-2.05 2.14 9.64 9.64 0 0 0-1.51-.64h-.07a9.78 9.78 0 0 0 .88-3 10 10 0 0 0-19.47-3.95 10.25 10.25 0 0 0-2.54-.18h-.07a10.13 10.13 0 0 0-.28-3.09 10 10 0 0 0-19.06-.87 10 10 0 0 0-17.88 4.89 10 10 0 0 0 .25 3.52 9.81 9.81 0 0 0 1.9 3.82 10 10 0 0 0-.7.76 9.62 9.62 0 0 0-2.38-.33 9.95 9.95 0 0 0-9.15-7.09 10 10 0 0 0-7.71 16.71l.05.05a9.78 9.78 0 0 0-1.41 1.25c-.09-.06-.17-.13-.26-.18a10 10 0 0 0-15 8.32 10.66 10.66 0 0 0-8.34 8.05v.07a11 11 0 0 0-3.28-.68 10.71 10.71 0 0 0-10.72 14.11C319 161.9 382.38 152.74 430.41 161z" transform="translate(-188.2 -132.89)"/></g></g></g><g id="Layer_3" data-name="Layer 3"><g id="Popcorn_pot" data-name="Popcorn pot"><rect class="cls-9" x="59.74" y="89.96" width="236.5" height="20.04" rx="7.5"/><path d="M243.93 232.2a12 12 0 0 1 12-12h219.16a12 12 0 0 1 12 12H243.93z" transform="translate(-188.2 -132.89)"/><path class="cls-11" d="M195.01 114.01l-2.66 229.82h-30.06l-2.66-229.82h35.38z"/><path class="cls-9" d="M343.21 476.71h-30.06l-8-229.82h21.81l.29 15.42a3.35 3.35 0 0 0 3.34 3.28h.07a3.35 3.35 0 0 0 3.27-3.41l-.29-15.29h6.88z" transform="translate(-188.2 -132.89)"/><path class="cls-11" d="M297.74 246.89h-35.37l13.44 229.82h14.82l-.57-12.93a3.34 3.34 0 1 1 6.68-.29l.59 13.22h8.55zM287 309.19a3.34 3.34 0 1 1 6.67-.3l.24 5.68a3.35 3.35 0 0 1-3.19 3.49h-.15a3.34 3.34 0 0 1-3.33-3.2zm.78 18.31a3.34 3.34 0 0 1 6.68-.28l1.35 31.5a3.37 3.37 0 0 1-3.2 3.48h-.14a3.34 3.34 0 0 1-3.37-3.2zm5.37 129.93H293a3.35 3.35 0 0 1-3.34-3.2l-.05-1.2a3.34 3.34 0 1 1 6.68-.29l.05 1.19a3.34 3.34 0 0 1-3.22 3.5zM468.68 246.89l-13.45 229.82h-5.51l.89-17.66a3.34 3.34 0 1 0-6.67-.33l-.92 18h-3.77l.31-7a3.34 3.34 0 0 0-6.68-.3l-.32 7.32h-7.39l8.14-229.82h2.75l-.19 4.65a3.36 3.36 0 0 0 3.21 3.48h.13a3.35 3.35 0 0 0 3.34-3.21l.2-4.92z" transform="translate(-188.2 -132.89)"/><path class="cls-9" d="M237.74 114.01l-8.04 229.82h-30.07l2.74-229.82h35.37z"/><g class="cls-10"><path class="cls-1" d="M465.74 348.44S440.35 451.33 272 463.35v16h185.72z" transform="translate(-188.2 -132.89)"/></g><g class="cls-10"><path class="cls-1" d="M70.43 110h213.79v16.03H70.43z"/></g><path class="cls-7" d="M295.71 386.3H305l-4.48-104.67h-8.22a12.66 12.66 0 0 0-12.64 13.19l3.4 79.37a12.65 12.65 0 0 0 12.65 12.11z" transform="translate(-188.2 -132.89)" opacity=".2"/><path class="cls-1" d="M474.42 218.83H256.63a14 14 0 0 0-1 28l13.65 233.38a3.36 3.36 0 0 0 3.34 3.15h36.68a1.06 1.06 0 0 0 .25 0h.08a1.14 1.14 0 0 0 .26 0h36.66a1.27 1.27 0 0 0 .27 0h.07a1.1 1.1 0 0 0 .26 0h36.67a1.1 1.1 0 0 0 .26 0h.07a1.18 1.18 0 0 0 .27 0h36.66a1.14 1.14 0 0 0 .26 0h.08a1.06 1.06 0 0 0 .25 0h36.68a3.36 3.36 0 0 0 3.34-3.15l13.65-233.38a14 14 0 0 0-1-28zM297.33 476.71l-.59-13.22a3.34 3.34 0 1 0-6.68.29l.57 12.93h-14.82l-13.44-229.82h35.37l8.14 229.82zm15.82 0l-8-229.82h21.81l.29 15.42a3.35 3.35 0 0 0 3.34 3.28h.07a3.35 3.35 0 0 0 3.27-3.41l-.29-15.29h6.88l2.74 229.82zm67.41 0h-30.07l-2.66-229.82h35.39zm37.34 0h-30.06l2.74-229.82H426zm37.33 0h-5.51l.89-17.66a3.34 3.34 0 1 0-6.67-.33l-.92 18h-3.77l.31-7a3.34 3.34 0 0 0-6.68-.3l-.32 7.32h-7.39l8.14-229.82h2.75l-.19 4.65a3.36 3.36 0 0 0 3.21 3.48h.13a3.35 3.35 0 0 0 3.34-3.21l.2-4.92h25.93zm9.84-241.84h16.42a7.32 7.32 0 0 1-7.07 5.34H256.63a7.35 7.35 0 1 1 0-14.69h217.79a7.36 7.36 0 0 1 7.07 5.34h-16.42a2 2 0 1 0 0 4z" transform="translate(-188.2 -132.89)"/><path class="cls-1" d="M296.31 454a3.34 3.34 0 0 1-3.19 3.48h-.15a3.35 3.35 0 0 1-3.34-3.2l-.05-1.2a3.34 3.34 0 1 1 6.68-.29zM295.78 358.72a3.37 3.37 0 0 1-3.2 3.48h-.14a3.34 3.34 0 0 1-3.34-3.2l-1.35-31.51a3.34 3.34 0 0 1 6.68-.28zM293.88 314.57a3.35 3.35 0 0 1-3.19 3.49h-.15a3.34 3.34 0 0 1-3.33-3.2l-.24-5.67a3.34 3.34 0 1 1 6.67-.3z" transform="translate(-188.2 -132.89)"/><path d="M463.06 232.86a2 2 0 0 1 2-2h16.42a7.36 7.36 0 0 0-7.07-5.34H256.63a7.35 7.35 0 1 0 0 14.69h217.79a7.32 7.32 0 0 0 7.07-5.34h-16.42a2 2 0 0 1-2.01-2.01zm-6 2h-1.33a2 2 0 1 1 0-4h1.33a2 2 0 1 1 0 4z" transform="translate(-188.2 -132.89)" fill="none"/><path class="cls-1" d="M459.06 232.86a2 2 0 0 1-2 2h-1.33a2 2 0 1 1 0-4h1.33a2 2 0 0 1 2 2z" transform="translate(-188.2 -132.89)"/></g></g><g id="Pepsi"><g id="Pepsi-2" data-name="Pepsi"><path class="cls-1" d="M573.82 259.59H437.75a9.13 9.13 0 0 0-9.13 9.13v5.79a9.14 9.14 0 0 0 9.13 9.13h.35l8.23 196.55a3.35 3.35 0 0 0 3.34 3.21h113a3.68 3.68 0 0 0 .58-.05h.18l.39-.12.17-.07a2.63 2.63 0 0 0 .41-.21l.1-.06a3.39 3.39 0 0 0 .42-.33l.15-.16a2.62 2.62 0 0 0 .22-.25l.15-.21a2.54 2.54 0 0 0 .16-.28 2.12 2.12 0 0 0 .11-.21 3.4 3.4 0 0 0 .28-1.2l8.23-196.57a9.13 9.13 0 0 0 8.77-9.11v-5.79a9.14 9.14 0 0 0-9.17-9.19z" transform="translate(-188.2 -132.89)" opacity=".15"/><path fill="#f1f1f1" d="M351.2 193.73l-9.3-3.03 14.92-101.6 40-6.77 3.95 8.95-36 5.01-13.57 97.44z"/><path class="cls-16" d="M534.94 326.42a1.23 1.23 0 0 1-.6-.05 1.34 1.34 0 0 1-.86-1.68l14.25-99.52a1.3 1.3 0 0 1 .73-.81l38-5.89a1.4 1.4 0 0 1 .35-.1 1.33 1.33 0 0 1 .73 2.54l-37.46 5.65-14.06 99a1.32 1.32 0 0 1-1.08.86z" transform="translate(-188.2 -132.89)"/><path class="cls-1" d="M539.66 328.38a1.74 1.74 0 0 1-.81-.07l-9.3-3a1.79 1.79 0 0 1-1-.89 1.76 1.76 0 0 1-.1-1.35l14.92-101.6a1.79 1.79 0 0 1 1-1.08l40-6.77a1.78 1.78 0 0 1 2.35.91l4 8.95a1.77 1.77 0 0 1-.91 2.34l-35.27 4.69-13.44 96.66a1.79 1.79 0 0 1-1.44 1.21zm-7.32-5.93l5.92 1.93 13-95.76a1.77 1.77 0 0 1 1-1.07l34.38-4.29-2.52-5.7-37.64 5.73z" transform="translate(-188.2 -132.89)"/><path class="cls-16" d="M386.43 347.17H273.49l-8.39-200.43h129.73l-8.4 200.43z"/><g class="cls-8"><path class="cls-1" d="M394.82 146.74l-8.39 200.43h-14.7l8.39-200.43h14.7z"/></g><g class="cls-10"><path class="cls-1" d="M380.12 146.74l-8.39 200.43h-14.69l8.39-200.43h14.69z"/></g><path class="cls-1" d="M574.64 483.4H461.7a3.35 3.35 0 0 1-3.34-3.21L450 279.77a3.35 3.35 0 0 1 3.34-3.48H583a3.35 3.35 0 0 1 3.34 3.48L578 480.19a3.34 3.34 0 0 1-3.36 3.21zm-109.74-6.69h106.53L579.55 283H456.78z" transform="translate(-188.2 -132.89)"/><path class="cls-1" d="M586.37 279.76a3.35 3.35 0 0 0-3.34-3.47H453.3a3.33 3.33 0 0 0-2.41 1 3.29 3.29 0 0 0-.92 2.44l8.39 200.43a3.35 3.35 0 0 0 3.34 3.21h112.93a3.33 3.33 0 0 0 3.06-2H476.4l-.2-4.68h-11.3L456.78 283h11.3l-.08-2h118.31z" transform="translate(-188.2 -132.89)"/><g class="cls-10"><path class="cls-9" d="M288 343.83h-11.31l-8.11-193.75h11.29L288 343.83z"/></g><rect class="cls-17" x="255.78" y="130.04" width="147.65" height="17.37" rx="4.33"/><g class="cls-10"><path class="cls-1" d="M591.63 272.73c0-3.2-2.59-9.8-5.79-9.8H449.77c-3.19 0-5.79 6.6-5.79 9.8z" transform="translate(-188.2 -132.89)"/></g><path class="cls-1" d="M585.84 283.64H449.77a9.15 9.15 0 0 1-9.13-9.13v-5.79a9.14 9.14 0 0 1 9.13-9.13h136.07a9.13 9.13 0 0 1 9.13 9.13v5.79a9.14 9.14 0 0 1-9.13 9.13zm-136.07-17.37a2.45 2.45 0 0 0-2.45 2.45v5.79a2.45 2.45 0 0 0 2.45 2.45h136.07a2.45 2.45 0 0 0 2.45-2.45v-5.79a2.45 2.45 0 0 0-2.45-2.45z" transform="translate(-188.2 -132.89)"/><circle class="cls-17" cx="330.61" cy="224.91" r="46.1"/><path class="cls-16" d="M482.18 368.19a38.08 38.08 0 0 0 74.71-10.39v-.76c-15.27 5.75-31.39 7-47 8.13a266.35 266.35 0 0 0-27.71 3.02z" transform="translate(-188.2 -132.89)"/><path class="cls-11" d="M555.82 348.84a38.08 38.08 0 0 0-75.09 9c0 .84 0 1.67.09 2.5a275.65 275.65 0 0 1 28.41-3.13c16.4-1.21 31.97-2.44 46.59-8.37z" transform="translate(-188.2 -132.89)"/><path class="cls-17" d="M509.23 357.17a275.65 275.65 0 0 0-28.41 3.13 38.07 38.07 0 0 0 1.36 7.89 266.35 266.35 0 0 1 27.65-3c15.65-1.17 31.77-2.38 47-8.13a37.57 37.57 0 0 0-1-8.2c-14.63 5.91-30.2 7.14-46.6 8.31z" transform="translate(-188.2 -132.89)"/></g></g></svg>